<svg width="36" height="24" viewBox="0 0 36 24" fill="none" xmlns="http://www.w3.org/2000/svg">
<path opacity="0.948321" d="M7.16035 10.8453L7.25825 11.6393L7.92922 11.5565L7.95954 10.8812L7.16035 10.8453ZM7.15061 23.1299H7.95061V22.4236L7.24974 22.3361L7.15061 23.1299ZM7.15061 23.1795H6.35061V23.9795H7.15061V23.1795ZM25.7392 23.1795V23.9795H25.7392L25.7392 23.1795ZM26.0626 23.1795L26.0626 22.3795H26.0626L26.0626 23.1795ZM26.5392 23.1795L26.5392 23.9795L27.3392 23.9795V23.1795H26.5392ZM26.5392 23.1667L26.496 22.3678L25.7392 22.4087V23.1667H26.5392ZM25.5058 6.37456L24.8198 6.78603L25.0702 7.20367L25.5563 7.17297L25.5058 6.37456ZM26.5392 21.5638H25.7392V22.4184L26.5918 22.3621L26.5392 21.5638ZM26.2682 7.95993L26.2908 7.16025L25.1051 7.1267L25.5183 8.23858L26.2682 7.95993ZM25.6861 15.8711L24.9851 15.4857L24.3336 16.6711H25.6861V15.8711ZM26.5392 15.8711H27.3392V15.0711H26.5392V15.8711ZM23.8005 15.8711V16.6711H24.2148L24.4539 16.3327L23.8005 15.8711ZM24.6012 8.10706L25.3343 7.78682L25.0741 7.19112L24.4377 7.32393L24.6012 8.10706ZM19.1913 15.8711L18.4022 16.0026L18.5136 16.6711H19.1913V15.8711ZM22.3118 17.4711L22.8198 18.0891L24.5448 16.6711H22.3118V17.4711ZM19.6706 17.4711V16.6711H18.4418L18.939 17.7948L19.6706 17.4711ZM20.3544 18.6682L19.7035 19.1335L20.0798 19.6598L20.6732 19.4019L20.3544 18.6682ZM17.5731 15.8711V16.6711H18.4867L18.3661 15.7655L17.5731 15.8711ZM23.78 6.65959L23.9894 7.43169L25.0987 7.1308L24.4313 6.19506L23.78 6.65959ZM8.76223 10.848L7.96339 10.8049L7.92332 11.5481L8.66165 11.6416L8.76223 10.848ZM14.1469 15.8711L13.3602 16.0166L13.4813 16.6711H14.1469V15.8711ZM17.9515 17.4711L18.7077 17.2102L18.5217 16.6711H17.9515V17.4711ZM14.2301 17.4711V16.6711H13.4902L13.4325 17.4086L14.2301 17.4711ZM18.7678 19.1756L18.9341 19.9581L20.0541 19.7202L19.4455 18.7503L18.7678 19.1756ZM13.9759 18.7983L13.2118 18.5613L12.9903 19.2752L13.6876 19.5446L13.9759 18.7983ZM8.8411 12.479L8.98822 11.6927L7.88058 11.4855L8.05022 12.5995L8.8411 12.479ZM12.5085 15.8711V16.6711H13.5393L13.2834 15.6725L12.5085 15.8711ZM10.2127 15.8711L9.55935 16.3327L9.79843 16.6711H10.2127V15.8711ZM12.6231 17.4711L13.4186 17.5564L13.5136 16.6711H12.6231V17.4711ZM11.7014 17.4711V16.6711H9.46838L11.1934 18.0891L11.7014 17.4711ZM12.519 18.0633L12.0901 18.7386L13.0299 19.3356L13.2959 18.2544L12.519 18.0633ZM8.32706 15.8711V16.6711H9.67965L9.02815 15.4857L8.32706 15.8711ZM7.22199 12.4516L8.01603 12.3542L7.91578 11.5372L7.10194 11.6607L7.22199 12.4516ZM7.15061 21.5134L7.01864 22.3024L7.95061 22.4583V21.5134H7.15061ZM7.15061 15.8711V15.0711H6.35061V15.8711H7.15061ZM8.75061 17.4711V16.6711H7.95061V17.4711H8.75061ZM8.75061 21.5134H7.95061V22.4583L8.88259 22.3024L8.75061 21.5134ZM9.42966 17.4711L10.0397 16.9535L9.80005 16.6711H9.42966V17.4711ZM11.8594 19.5357L12.5199 19.9871L12.9978 19.2877L12.2722 18.8505L11.8594 19.5357ZM12.1759 21.5795L11.6443 20.9817L10.0722 22.3795H12.1759V21.5795ZM21.0383 21.5795V22.3795H23.539L21.5026 20.928L21.0383 21.5795ZM19.8453 20.5516L20.421 19.9962L20.0842 19.6471L19.6189 19.7843L19.8453 20.5516ZM13.3038 20.2527L13.6 19.5095L12.9829 19.2637L12.6278 19.825L13.3038 20.2527ZM21.4878 19.903L21.1287 19.188L20.052 19.7288L20.9682 20.5113L21.4878 19.903ZM24.9392 21.4915L24.814 22.2816L25.7392 22.4282V21.4915H24.9392ZM24.5835 17.4711V16.6711H24.2132L23.9735 16.9535L24.5835 17.4711ZM24.9392 17.4711H25.7392V16.6711H24.9392V17.4711ZM7.95954 10.8812C8.17134 6.16316 12.1411 2.39999 17.0066 2.39999V0.799994C11.3101 0.799994 6.61243 5.212 6.36115 10.8094L7.95954 10.8812ZM2.45233 16.9882C2.45233 14.241 4.54707 11.9736 7.25825 11.6393L7.06244 10.0513C3.58509 10.4801 0.852332 13.3976 0.852332 16.9882H2.45233ZM7.24974 22.3361C4.54267 21.998 2.45233 19.7325 2.45233 16.9882H0.852332C0.852332 20.575 3.57938 23.4902 7.05149 23.9237L7.24974 22.3361ZM7.95061 23.1795V23.1299H6.35061V23.1795H7.95061ZM7.95061 22.3795H7.15061V23.9795H7.95061V22.3795ZM25.7392 22.3795H7.95061V23.9795H25.7392V22.3795ZM26.0626 22.3795L25.7392 22.3795L25.7392 23.9795L26.0626 23.9795L26.0626 22.3795ZM26.5392 22.3795L26.0626 22.3795L26.0626 23.9795L26.5392 23.9795L26.5392 22.3795ZM25.7392 23.1667V23.1795H27.3392V23.1667H25.7392ZM33.8249 14.7683C33.8249 18.8289 30.5821 22.1472 26.496 22.3678L26.5823 23.9655C31.4842 23.7008 35.4249 19.7117 35.4249 14.7683H33.8249ZM26.0626 7.15702C30.35 7.15702 33.8249 10.5651 33.8249 14.7683H35.4249C35.4249 9.65112 31.203 5.55702 26.0626 5.55702V7.15702ZM25.5563 7.17297C25.7236 7.16239 25.8924 7.15702 26.0626 7.15702V5.55702C25.8587 5.55702 25.6563 5.56346 25.4554 5.57615L25.5563 7.17297ZM17.0066 2.39999C20.3327 2.39999 23.2452 4.16077 24.8198 6.78603L26.1919 5.96308C24.3348 2.86668 20.9074 0.799994 17.0066 0.799994V2.39999ZM26.5918 22.3621C30.6322 22.0955 33.8249 18.7967 33.8249 14.7683H32.2249C32.2249 17.9227 29.7174 20.5524 26.4865 20.7656L26.5918 22.3621ZM33.8249 14.7683C33.8249 10.6402 30.4727 7.27857 26.2908 7.16025L26.2456 8.75961C29.5917 8.85429 32.2249 11.5359 32.2249 14.7683H33.8249ZM25.5183 8.23858C25.8702 9.18552 26.0626 10.2091 26.0626 11.2798H27.6626C27.6626 10.0158 27.4352 8.80367 27.0181 7.68127L25.5183 8.23858ZM26.0626 11.2798C26.0626 12.8046 25.6722 14.2355 24.9851 15.4857L26.3872 16.2564C27.2004 14.7769 27.6626 13.0817 27.6626 11.2798H26.0626ZM25.6861 16.6711H25.7392V15.0711H25.6861V16.6711ZM25.7392 16.6711H26.5392V15.0711H25.7392V16.6711ZM25.7392 15.8711V16.6711H27.3392V15.8711H25.7392ZM25.7392 16.6711V21.5638H27.3392V16.6711H25.7392ZM24.4539 16.3327C25.468 14.8976 26.0626 13.1543 26.0626 11.2798H24.4626C24.4626 12.8105 23.9782 14.2334 23.1472 15.4094L24.4539 16.3327ZM26.0626 11.2798C26.0626 10.0422 25.8033 8.86054 25.3343 7.78682L23.8681 8.4273C24.2509 9.30362 24.4626 10.2675 24.4626 11.2798H26.0626ZM24.4377 7.32393C20.9319 8.05562 18.3003 11.1117 18.3003 14.7683H19.9003C19.9003 11.9048 21.9653 9.47442 24.7646 8.89018L24.4377 7.32393ZM18.3003 14.7683C18.3003 15.1878 18.3351 15.6002 18.4022 16.0026L19.9804 15.7395C19.9278 15.4236 19.9003 15.0992 19.9003 14.7683H18.3003ZM19.1913 16.6711H23.8005V15.0711H19.1913V16.6711ZM22.3118 16.6711H19.6706V18.2711H22.3118V16.6711ZM20.6732 19.4019C21.4533 19.0629 22.1749 18.6192 22.8198 18.0891L21.8038 16.8531C21.2728 17.2896 20.6783 17.6552 20.0355 17.9345L20.6732 19.4019ZM18.939 17.7948C19.1484 18.268 19.4053 18.7162 19.7035 19.1335L21.0052 18.203C20.7694 17.8732 20.5669 17.5197 20.4022 17.1474L18.939 17.7948ZM16.7003 14.7683C16.7003 15.1776 16.7274 15.5809 16.7801 15.9766L18.3661 15.7655C18.3228 15.4397 18.3003 15.1068 18.3003 14.7683H16.7003ZM23.5706 5.88749C19.6277 6.95698 16.7003 10.5089 16.7003 14.7683H18.3003C18.3003 11.269 20.7065 8.32217 23.9894 7.43169L23.5706 5.88749ZM17.0066 3.99999C19.5516 3.99999 21.7851 5.24027 23.1287 7.12411L24.4313 6.19506C22.7956 3.90155 20.0825 2.39999 17.0066 2.39999V3.99999ZM9.56107 10.891C9.76669 7.07788 12.9952 3.99999 17.0066 3.99999V2.39999C12.1669 2.39999 8.21597 6.12107 7.96339 10.8049L9.56107 10.891ZM14.9335 15.7255C14.3807 12.7382 11.912 10.4407 8.86281 10.0543L8.66165 11.6416C11.0359 11.9425 12.937 13.7294 13.3602 16.0166L14.9335 15.7255ZM14.1469 16.6711H17.5731V15.0711H14.1469V16.6711ZM17.9515 16.6711H14.2301V18.2711H17.9515V16.6711ZM17.1952 17.732C17.4231 18.3924 17.7248 19.0185 18.0902 19.6008L19.4455 18.7503C19.1437 18.2695 18.8952 17.7536 18.7077 17.2102L17.1952 17.732ZM18.6016 18.393C18.0888 18.502 17.5553 18.5596 17.0066 18.5596V20.1596C17.6676 20.1596 18.3125 20.0902 18.9341 19.9581L18.6016 18.393ZM17.0066 18.5596C16.0353 18.5596 15.1108 18.3791 14.2642 18.052L13.6876 19.5446C14.7158 19.9417 15.8357 20.1596 17.0066 20.1596V18.5596ZM14.74 19.0353C14.8891 18.5547 14.9871 18.0519 15.0276 17.5335L13.4325 17.4086C13.4013 17.8073 13.3261 18.1929 13.2118 18.5613L14.74 19.0353ZM8.69398 13.2654C10.1949 13.5462 11.3728 14.6618 11.7335 16.0697L13.2834 15.6725C12.7659 13.653 11.0914 12.0862 8.98822 11.6927L8.69398 13.2654ZM10.866 15.4094C10.2336 14.5143 9.80224 13.4767 9.63199 12.3586L8.05022 12.5995C8.2591 13.9712 8.78809 15.2413 9.55935 16.3327L10.866 15.4094ZM10.2127 16.6711H12.5085V15.0711H10.2127V16.6711ZM12.6231 16.6711H11.7014V18.2711H12.6231V16.6711ZM11.8277 17.3857C11.8099 17.5513 11.7812 17.7137 11.7422 17.8723L13.2959 18.2544C13.3519 18.0268 13.3931 17.7938 13.4186 17.5564L11.8277 17.3857ZM12.9479 17.388C12.6903 17.2244 12.4437 17.0456 12.2094 16.8531L11.1934 18.0891C11.4779 18.3229 11.7773 18.54 12.0901 18.7386L12.9479 17.388ZM9.02815 15.4857C8.50471 14.5334 8.15375 13.4766 8.01603 12.3542L6.42794 12.5491C6.59106 13.8785 7.00695 15.1301 7.62598 16.2564L9.02815 15.4857ZM7.10194 11.6607C4.46857 12.0604 2.45233 14.2946 2.45233 16.9882H4.05233C4.05233 15.1191 5.457 13.5287 7.34203 13.2426L7.10194 11.6607ZM2.45233 16.9882C2.45233 19.6534 4.42635 21.8689 7.01864 22.3024L7.28258 20.7244C5.42737 20.4141 4.05233 18.8376 4.05233 16.9882H2.45233ZM7.95061 21.5134V16.6711H6.35061V21.5134H7.95061ZM7.95061 16.6711V15.8711H6.35061V16.6711H7.95061ZM7.15061 16.6711H7.95061V15.0711H7.15061V16.6711ZM7.95061 16.6711H8.32706V15.0711H7.95061V16.6711ZM7.95061 17.4711V21.5134H9.55061V17.4711H7.95061ZM9.42966 16.6711H8.75061V18.2711H9.42966V16.6711ZM12.2722 18.8505C11.4262 18.3408 10.6719 17.6986 10.0397 16.9535L8.81965 17.9886C9.56441 18.8664 10.452 19.6218 11.4465 20.221L12.2722 18.8505ZM8.88259 22.3024C10.3988 22.0488 11.699 21.1883 12.5199 19.9871L11.1989 19.0844C10.6197 19.9318 9.69831 20.5438 8.61864 20.7244L8.88259 22.3024ZM12.1759 22.3795H21.0383V20.7795H12.1759V22.3795ZM21.5026 20.928C21.1132 20.6505 20.7511 20.3383 20.421 19.9962L19.2695 21.1071C19.6679 21.52 20.1047 21.8964 20.574 22.231L21.5026 20.928ZM19.6189 19.7843C18.7922 20.0283 17.9153 20.1596 17.0066 20.1596V21.7596C18.0701 21.7596 19.0994 21.6058 20.0717 21.3189L19.6189 19.7843ZM17.0066 20.1596C15.8012 20.1596 14.6513 19.9285 13.6 19.5095L13.0077 20.9959C14.2446 21.4888 15.5953 21.7596 17.0066 21.7596V20.1596ZM12.6278 19.825C12.3563 20.2541 12.0247 20.6435 11.6443 20.9817L12.7075 22.1774C13.1983 21.741 13.6275 21.2374 13.9799 20.6804L12.6278 19.825ZM20.9682 20.5113C22.0331 21.4207 23.3544 22.0503 24.814 22.2816L25.0644 20.7013C23.9024 20.5172 22.8526 20.0165 22.0073 19.2946L20.9682 20.5113ZM23.9735 16.9535C23.1925 17.8741 22.2251 18.6375 21.1287 19.188L21.8468 20.6179C23.1354 19.9707 24.2735 19.073 25.1936 17.9886L23.9735 16.9535ZM24.9392 16.6711H24.5835V18.2711H24.9392V16.6711ZM25.7392 21.4915V17.4711H24.1392V21.4915H25.7392Z" fill="#C1C1C6"/>
</svg>
