<svg width="20" height="20" viewBox="0 0 20 20" fill="none" xmlns="http://www.w3.org/2000/svg">
<g clip-path="url(#clip0)">
<path d="M7.42043 4.92109C8.17129 5.03718 8.76376 5.62965 8.88015 6.38082C8.88405 6.40692 8.91765 6.40692 8.92155 6.38082C9.03765 5.62995 9.63012 5.03748 10.3813 4.92109C10.4074 4.91719 10.4074 4.88359 10.3813 4.87969C9.63042 4.7636 9.03795 4.17113 8.92155 3.41996C8.91765 3.39387 8.88405 3.39387 8.88015 3.41996C8.76406 4.17083 8.17159 4.7633 7.42043 4.87969C7.39433 4.88359 7.39433 4.91689 7.42043 4.92109Z" fill="#FBD490" stroke="#F0C419" stroke-width="0.5" stroke-miterlimit="10"/>
<path d="M2.91675 8.5167C3.51762 8.6097 3.99159 9.08368 4.08429 9.68425C4.08759 9.70525 4.11429 9.70525 4.11729 9.68425C4.21028 9.08338 4.68426 8.6094 5.28483 8.5167C5.30583 8.5134 5.30583 8.48671 5.28483 8.48371C4.68396 8.39071 4.20998 7.91673 4.11729 7.31616C4.11399 7.29517 4.08729 7.29517 4.08429 7.31616C3.99129 7.91703 3.51732 8.39101 2.91675 8.48371C2.89575 8.48671 2.89575 8.5134 2.91675 8.5167Z" fill="#FBD490" stroke="#F0C419" stroke-width="0.5" stroke-miterlimit="10"/>
<path d="M2.62457 3.72536C3.52573 3.86486 4.23669 4.57582 4.37619 5.47698C4.38099 5.50847 4.42088 5.50847 4.42598 5.47698C4.56548 4.57582 5.27644 3.86486 6.1776 3.72536C6.2091 3.72056 6.2091 3.68067 6.1776 3.67557C5.27614 3.53607 4.56518 2.82511 4.42568 1.92395C4.42088 1.89245 4.38099 1.89245 4.37589 1.92395C4.23669 2.82511 3.52573 3.53607 2.62457 3.67557C2.59308 3.68037 2.59308 3.72026 2.62457 3.72536Z" fill="#FBD490" stroke="#F0C419" stroke-width="0.5" stroke-miterlimit="10"/>
<path d="M19.9928 8.20025H19.9685C19.979 8.29145 19.9862 8.38354 19.9862 8.47774C19.9862 8.64363 19.8521 8.77772 19.6862 8.77772C19.5203 8.77772 19.3862 8.64363 19.3862 8.47774C19.3862 7.48509 18.579 6.67783 17.5863 6.67783C16.5937 6.67783 15.7864 7.48509 15.7864 8.47774C15.7864 8.64363 15.6523 8.77772 15.4864 8.77772C15.3205 8.77772 15.1864 8.64363 15.1864 8.47774C15.1864 7.2586 16.1011 6.25095 17.2797 6.09975C17.2119 4.58813 15.9646 3.37799 14.4365 3.37799C12.9033 3.37799 11.6523 4.59593 11.5923 6.11475C11.841 6.17355 12.0819 6.27075 12.3057 6.40904C12.8505 6.74652 13.2314 7.276 13.3784 7.89996C13.4162 8.06136 13.3163 8.22275 13.1552 8.26085C12.9938 8.29715 12.8325 8.19875 12.7944 8.03766C12.567 7.07111 11.5947 6.46994 10.6303 6.69762C9.66401 6.92501 9.06284 7.89577 9.29023 8.86202C9.32803 9.02311 9.22814 9.1845 9.06674 9.2226C9.04395 9.228 9.02085 9.2304 8.99805 9.2304C8.86215 9.2304 8.73886 9.1371 8.70616 8.99911C8.61797 8.62383 8.62577 8.24855 8.70976 7.89697C8.09239 7.80667 7.46872 8.03976 7.06194 8.53353C6.68456 8.99221 6.57447 9.58288 6.70946 10.119C6.70976 10.1226 6.71156 10.1256 6.71186 10.1292C6.80366 10.4849 7.00285 10.8161 7.30733 11.0672C7.43513 11.1728 7.45343 11.3615 7.34843 11.4896C7.28903 11.5616 7.20324 11.5988 7.11654 11.5988C7.04935 11.5988 6.98215 11.5766 6.92605 11.5304C6.56097 11.2298 6.29968 10.8371 6.16229 10.3961C4.94945 10.08 3.67421 10.5902 3.01545 11.6747C2.62037 12.325 2.50187 13.0906 2.68246 13.8301C2.86305 14.5698 3.32053 15.1947 3.9712 15.5901C4.11279 15.6762 4.15779 15.8604 4.07169 16.0023C4.0153 16.0953 3.9163 16.1463 3.81521 16.1463C3.77531 16.1463 3.73571 16.1355 3.69761 16.119C4.17159 16.3997 4.71726 16.5716 5.30073 16.5968L7.76331 16.5977C9.35533 16.5722 10.7191 15.5898 11.3004 14.2002C11.8893 15.6081 13.2812 16.6001 14.9003 16.6001C17.7123 16.6001 20 14.3124 20 11.5004V8.50054L19.9928 8.20025Z" fill="#37ACFF"/>
<path d="M17.88 6.12017C17.8107 4.27856 16.2949 2.80054 14.4368 2.80054C12.5943 2.80054 11.0889 4.25366 10.9959 6.07337C10.8286 6.07697 10.6603 6.09677 10.4932 6.13607C9.79241 6.30106 9.23773 6.76064 8.92455 7.35161C8.05999 7.17612 7.17024 7.4815 6.59967 8.17417C6.22439 8.63015 6.03599 9.19652 6.05669 9.78179C4.66776 9.5316 3.25483 10.149 2.50367 11.3849C2.0249 12.1724 1.8818 13.099 2.10019 13.9942C2.31858 14.8893 2.87265 15.6459 3.66011 16.1247C3.70871 16.1544 3.76271 16.1685 3.81581 16.1685C3.9172 16.1685 4.0159 16.1172 4.07229 16.0245C4.15839 15.8826 4.11339 15.6984 3.9718 15.6123C3.32113 15.2169 2.86365 14.592 2.68306 13.8523C2.50247 13.1128 2.62097 12.3473 3.01605 11.6969C3.67481 10.6127 4.95005 10.1025 6.16289 10.4184C6.30028 10.8596 6.56187 11.252 6.92665 11.5526C6.98275 11.5985 7.04994 11.621 7.11714 11.621C7.20384 11.621 7.28963 11.5838 7.34903 11.5118C7.45432 11.3837 7.43572 11.1947 7.30793 11.0894C7.00315 10.8386 6.80426 10.5072 6.71246 10.1514C6.71216 10.1478 6.71036 10.1448 6.71006 10.1412C6.57507 9.6051 6.68516 9.01443 7.06254 8.55575C7.46932 8.06198 8.09299 7.82889 8.71036 7.91918C8.62637 8.27106 8.61827 8.64605 8.70676 9.02133C8.73916 9.15962 8.86275 9.25262 8.99865 9.25262C9.02145 9.25262 9.04454 9.24992 9.06734 9.24482C9.22873 9.20672 9.32863 9.04533 9.29083 8.88423C9.06344 7.91798 9.66461 6.94723 10.6309 6.71984C11.5953 6.49215 12.5676 7.09332 12.795 8.05988C12.8331 8.22097 12.9944 8.31936 13.1558 8.28306C13.3169 8.24497 13.4168 8.08357 13.379 7.92218C13.232 7.29821 12.8511 6.76874 12.3063 6.43126C12.0825 6.29266 11.8416 6.19577 11.5929 6.13697C11.6529 4.61815 12.9039 3.40021 14.4371 3.40021C15.9652 3.40021 17.2128 4.61005 17.2803 6.12197C16.1017 6.27316 15.187 7.28081 15.187 8.49995C15.187 8.66584 15.3211 8.79994 15.487 8.79994C15.6529 8.79994 15.787 8.66584 15.787 8.49995C15.787 7.5073 16.5943 6.70004 17.5869 6.70004C18.5796 6.70004 19.4006 7.5073 19.4006 8.49995C19.4006 8.50835 19.4006 8.89803 19.4006 9.39991C19.4006 9.5655 19.535 9.69989 19.7006 9.69989C19.8662 9.69989 20.0006 9.5655 20.0006 9.39991V8.49995C20 7.27631 19.0649 6.26536 17.88 6.12017Z" fill="#66C5FF"/>
<path d="M16.4002 12.4001C16.5658 12.4001 16.7002 12.2657 16.7002 12.1001C16.7002 11.6675 16.7002 11.9501 16.7002 11.9501C16.7002 11.2058 17.3058 10.6002 18.0501 10.6002C18.7943 10.6002 19.4 11.2058 19.4 11.9501C19.4 12.116 19.5344 12.2501 19.7 12.2501C19.8656 12.2501 20 12.116 20 11.9501C20 10.8749 19.1252 10.0002 18.0501 10.0002C17.0256 10.0002 16.1773 10.7948 16.1002 11.8001V12.1001C16.1002 12.2657 16.2346 12.4001 16.4002 12.4001Z" fill="#66C5FF"/>
<path d="M10.7884 15.1878L9.88841 16.0878C9.77111 16.2051 9.77111 16.3947 9.88841 16.512C9.9469 16.5705 10.0237 16.5999 10.1005 16.5999C10.1773 16.5999 10.2541 16.5705 10.3126 16.512L11.2125 15.612C11.3298 15.4947 11.3298 15.3051 11.2125 15.1878C11.0952 15.0705 10.9057 15.0705 10.7884 15.1878Z" fill="#ABC5D3"/>
<path d="M8.98845 16.9877L8.08849 17.8876C7.9712 18.0049 7.9712 18.1945 8.08849 18.3118C8.14699 18.3703 8.22378 18.3997 8.30058 18.3997C8.37738 18.3997 8.45417 18.3703 8.51267 18.3118L9.41262 17.4119C9.52992 17.2946 9.52992 17.105 9.41262 16.9877C9.29533 16.8704 9.10574 16.8704 8.98845 16.9877Z" fill="#ABC5D3"/>
<path d="M15.4123 13.3879C15.295 13.2706 15.1054 13.2706 14.9881 13.3879L14.0882 14.2879C13.9709 14.4051 13.9709 14.5947 14.0882 14.712C14.1467 14.7705 14.2235 14.7999 14.3003 14.7999C14.3771 14.7999 14.4539 14.7705 14.5124 14.712L15.4123 13.8121C15.5296 13.6948 15.5296 13.5049 15.4123 13.3879Z" fill="#ABC5D3"/>
<path d="M13.1882 15.1878L12.2883 16.0878C12.171 16.2051 12.171 16.3947 12.2883 16.512C12.3468 16.5705 12.4236 16.5999 12.5004 16.5999C12.5772 16.5999 12.654 16.5705 12.7125 16.512L13.6124 15.612C13.7297 15.4947 13.7297 15.3051 13.6124 15.1878C13.4951 15.0705 13.3055 15.0705 13.1882 15.1878Z" fill="#ABC5D3"/>
<path d="M10.6126 13.3879C10.4953 13.2706 10.3057 13.2706 10.1884 13.3879L9.28843 14.2879C9.17114 14.4051 9.17114 14.5947 9.28843 14.712C9.34693 14.7705 9.42372 14.7999 9.50052 14.7999C9.57732 14.7999 9.65411 14.7705 9.71261 14.712L10.6126 13.8121C10.7299 13.6948 10.7299 13.5049 10.6126 13.3879Z" fill="#ABC5D3"/>
<path d="M13.0124 13.3879C12.8952 13.2706 12.7056 13.2706 12.5883 13.3879L11.6883 14.2879C11.571 14.4051 11.571 14.5947 11.6883 14.712C11.7468 14.7705 11.8236 14.7999 11.9004 14.7999C11.9772 14.7999 12.054 14.7705 12.1125 14.712L13.0124 13.8121C13.1297 13.6948 13.1297 13.5049 13.0124 13.3879Z" fill="#ABC5D3"/>
<path d="M8.81266 15.1878C8.69536 15.0705 8.50577 15.0705 8.38848 15.1878L7.48853 16.0878C7.37123 16.2051 7.37123 16.3947 7.48853 16.512C7.54702 16.5705 7.62382 16.5999 7.70061 16.5999C7.77741 16.5999 7.85421 16.5705 7.9127 16.512L8.81266 15.612C8.92995 15.4947 8.92995 15.3048 8.81266 15.1878Z" fill="#ABC5D3"/>
</g>
<defs>
<clipPath id="clip0">
<rect x="2" y="1" width="18" height="18" fill="white"/>
</clipPath>
</defs>
</svg>
