<svg width="35" height="33" viewBox="0 0 35 33" fill="none" xmlns="http://www.w3.org/2000/svg">
<path opacity="0.948321" d="M6.82201 10.0362L6.92223 10.8299L7.58994 10.7456L7.62115 10.0733L6.82201 10.0362ZM6.8118 22.072H7.6118V21.3679L6.91333 21.2785L6.8118 22.072ZM6.8118 22.1228H6.0118V22.9228H6.8118V22.1228ZM25.7556 22.1228V22.9228H26.5556V22.1228H25.7556ZM25.7556 22.1092L25.7107 21.3105L24.9556 21.353V22.1092H25.7556ZM24.7395 5.66468L24.0535 6.07636L24.3037 6.49314L24.7888 6.46315L24.7395 5.66468ZM25.7556 20.5061H24.9556V21.3634L25.8109 21.3042L25.7556 20.5061ZM25.4996 7.252L25.5255 6.45242L24.3392 6.41391L24.7487 7.52798L25.4996 7.252ZM24.9362 14.9449L24.2336 14.5624L23.59 15.7449H24.9362V14.9449ZM25.7556 14.9449H26.5556V14.1449H25.7556V14.9449ZM23.0546 14.9449V15.7449H23.4701L23.709 15.405L23.0546 14.9449ZM23.8339 7.39797L24.5679 7.07984L24.3079 6.47985L23.6682 6.61533L23.8339 7.39797ZM18.5887 14.9449L17.7992 15.0742L17.9091 15.7449H18.5887V14.9449ZM21.5616 16.5449L22.0664 17.1655L23.8131 15.7449H21.5616V16.5449ZM19.0684 16.5449V15.7449H17.8351L18.338 16.8711L19.0684 16.5449ZM19.7126 17.673L19.0601 18.1359L19.437 18.6671L20.0336 18.4057L19.7126 17.673ZM16.9712 14.9449V15.7449H17.8822L17.7645 14.8416L16.9712 14.9449ZM23.0141 5.95169L23.2264 6.72301L24.3327 6.41852L23.6644 5.48576L23.0141 5.95169ZM8.42402 10.0391L7.62527 9.9944L7.58374 10.7366L8.32092 10.8324L8.42402 10.0391ZM13.67 14.9449L12.8837 15.0922L13.006 15.7449H13.67V14.9449ZM17.348 16.5449L18.104 16.2832L17.9177 15.7449H17.348V16.5449ZM13.7529 16.5449V15.7449H13.015L12.9555 16.4803L13.7529 16.5449ZM18.128 18.1798L18.292 18.9628L19.4112 18.7284L18.8073 17.7573L18.128 18.1798ZM13.5105 17.8129L12.7456 17.5784L12.5269 18.2917L13.2232 18.5595L13.5105 17.8129ZM8.50378 11.6719L8.65604 10.8865L7.53849 10.6699L7.71326 11.7947L8.50378 11.6719ZM12.0305 14.9449V15.7449H13.0664L12.8045 14.7426L12.0305 14.9449ZM9.82818 14.9449L9.17377 15.405L9.41273 15.7449H9.82818V14.9449ZM12.1454 16.5449L12.9405 16.6337L13.0397 15.7449H12.1454V16.5449ZM11.3212 16.5449V15.7449H9.06965L10.8164 17.1655L11.3212 16.5449ZM12.053 17.0747L11.621 17.748L12.5694 18.3565L12.8311 17.2604L12.053 17.0747ZM7.94656 14.9449V15.7449H9.29278L8.64922 14.5624L7.94656 14.9449ZM6.8839 11.6431L7.67776 11.5443L7.57572 10.7249L6.75998 10.8528L6.8839 11.6431ZM6.8118 20.4545L6.67544 21.2428L7.6118 21.4048V20.4545H6.8118ZM6.8118 14.9449V14.1449H6.0118V14.9449H6.8118ZM8.4118 16.5449V15.7449H7.6118V16.5449H8.4118ZM8.4118 20.4545H7.6118V21.4048L8.54816 21.2428L8.4118 20.4545ZM9.04412 16.5449L9.6542 16.0274L9.41457 15.7449H9.04412V16.5449ZM11.3955 18.5495L12.0547 19.0029L12.5349 18.3049L11.8104 17.8655L11.3955 18.5495ZM11.7803 20.5228L11.2436 19.9297L9.70401 21.3228H11.7803V20.5228ZM20.3145 20.5228V21.3228H22.7823L20.7839 19.875L20.3145 20.5228ZM19.2028 19.5579L19.7783 19.0022L19.4418 18.6536L18.977 18.7904L19.2028 19.5579ZM12.8395 19.268L13.1348 18.5245L12.5193 18.2799L12.1642 18.839L12.8395 19.268ZM20.8444 18.9067L20.4827 18.1932L19.4089 18.7374L20.3266 19.5166L20.8444 18.9067ZM24.1556 20.4333L24.0274 21.223L24.9556 21.3737V20.4333H24.1556ZM23.8387 16.5449V15.7449H23.4682L23.2286 16.0274L23.8387 16.5449ZM24.1556 16.5449H24.9556V15.7449H24.1556V16.5449ZM7.62115 10.0733C7.83487 5.46967 11.7024 1.8 16.4414 1.8V0.200003C10.869 0.200003 6.27722 4.5204 6.02287 9.99911L7.62115 10.0733ZM2.25098 16.0548C2.25098 13.3753 4.28599 11.1628 6.92223 10.8299L6.72178 9.24252C3.31866 9.67226 0.650977 12.5364 0.650977 16.0548H2.25098ZM6.91333 21.2785C4.2814 20.9417 2.25098 18.7312 2.25098 16.0548H0.650977C0.650977 19.5692 3.31266 22.4308 6.71027 22.8656L6.91333 21.2785ZM7.6118 22.1228V22.072H6.0118V22.1228H7.6118ZM7.6118 21.3228H6.8118V22.9228H7.6118V21.3228ZM24.9556 21.3228H7.6118V22.9228H24.9556V21.3228ZM25.271 21.3228H24.9556V22.9228H25.271V21.3228ZM25.7556 21.3228H25.271V22.9228H25.7556V21.3228ZM24.9556 22.1092V22.1228H26.5556V22.1092H24.9556ZM32.8392 13.8856C32.8392 17.8478 29.6864 21.0866 25.7107 21.3105L25.8006 22.908C30.5938 22.638 34.4392 18.7262 34.4392 13.8856H32.8392ZM25.271 6.4483C29.4512 6.4483 32.8392 9.77846 32.8392 13.8856H34.4392C34.4392 8.86783 30.3076 4.8483 25.271 4.8483V6.4483ZM24.7888 6.46315C24.9482 6.4533 25.109 6.4483 25.271 6.4483V4.8483C25.076 4.8483 24.8823 4.85432 24.6901 4.8662L24.7888 6.46315ZM16.4414 1.8C19.6805 1.8 22.517 3.5162 24.0535 6.07636L25.4254 5.253C23.6069 2.22295 20.2562 0.200003 16.4414 0.200003V1.8ZM25.8109 21.3042C29.739 21.0322 32.8392 17.814 32.8392 13.8856H31.2392C31.2392 16.9448 28.8184 19.4921 25.7004 19.708L25.8109 21.3042ZM32.8392 13.8856C32.8392 9.86237 29.5879 6.58431 25.5255 6.45242L25.4736 8.05158C28.7001 8.15633 31.2392 10.7526 31.2392 13.8856H32.8392ZM24.7487 7.52798C25.0864 8.44691 25.271 9.43929 25.271 10.4768H26.871C26.871 9.24801 26.6522 8.06894 26.2505 6.97602L24.7487 7.52798ZM25.271 10.4768C25.271 11.9569 24.8953 13.3465 24.2336 14.5624L25.6389 15.3273C26.4248 13.8833 26.871 12.2315 26.871 10.4768H25.271ZM24.9362 15.7449H24.9556V14.1449H24.9362V15.7449ZM24.9556 15.7449H25.7556V14.1449H24.9556V15.7449ZM24.9556 14.9449V15.7449H26.5556V14.9449H24.9556ZM24.9556 15.7449V20.5061H26.5556V15.7449H24.9556ZM23.709 15.405C24.6938 14.0045 25.271 12.3045 25.271 10.4768H23.671C23.671 11.9624 23.203 13.343 22.4002 14.4847L23.709 15.405ZM25.271 10.4768C25.271 9.27365 25.0208 8.1247 24.5679 7.07984L23.0999 7.71611C23.4676 8.56458 23.671 9.49732 23.671 10.4768H25.271ZM23.6682 6.61533C20.2592 7.3373 17.7028 10.3189 17.7028 13.8856H19.3028C19.3028 11.108 21.2972 8.75295 23.9997 8.18061L23.6682 6.61533ZM17.7028 13.8856C17.7028 14.2895 17.7357 14.6865 17.7992 15.0742L19.3781 14.8156C19.3286 14.513 19.3028 14.2024 19.3028 13.8856H17.7028ZM18.5887 15.7449H23.0546V14.1449H18.5887V15.7449ZM21.5616 15.7449H19.0684V17.3449H21.5616V15.7449ZM20.0336 18.4057C20.7704 18.083 21.4534 17.6641 22.0664 17.1655L21.0569 15.9242C20.5548 16.3326 19.9952 16.6758 19.3916 16.9402L20.0336 18.4057ZM18.338 16.8711C18.5373 17.3175 18.7798 17.7408 19.0601 18.1359L20.365 17.21C20.1448 16.8996 19.9548 16.5678 19.7989 16.2187L18.338 16.8711ZM16.1028 13.8856C16.1028 14.2793 16.1283 14.6673 16.1779 15.0482L17.7645 14.8416C17.7238 14.529 17.7028 14.21 17.7028 13.8856H16.1028ZM22.8018 5.18037C18.9537 6.23947 16.1028 9.71884 16.1028 13.8856H17.7028C17.7028 10.4747 20.0375 7.60066 23.2264 6.72301L22.8018 5.18037ZM16.4414 3.4C18.8995 3.4 21.0591 4.59664 22.3638 6.41762L23.6644 5.48576C22.0679 3.25749 19.4301 1.8 16.4414 1.8V3.4ZM9.22277 10.0838C9.42988 6.38177 12.5593 3.4 16.4414 3.4V1.8C11.729 1.8 7.88084 5.42627 7.62527 9.9944L9.22277 10.0838ZM14.4563 14.7976C13.9096 11.8795 11.5036 9.63257 8.52711 9.24576L8.32092 10.8324C10.6237 11.1317 12.4671 12.8686 12.8837 15.0922L14.4563 14.7976ZM13.67 15.7449H16.9712V14.1449H13.67V15.7449ZM17.348 15.7449H13.7529V17.3449H17.348V15.7449ZM16.592 16.8066C16.8114 17.4404 17.1 18.0418 17.4486 18.6023L18.8073 17.7573C18.5206 17.2964 18.2838 16.8027 18.104 16.2832L16.592 16.8066ZM17.9639 17.3968C17.4741 17.4994 16.9649 17.5536 16.4414 17.5536V19.1536C17.0756 19.1536 17.6948 19.0879 18.292 18.9628L17.9639 17.3968ZM16.4414 17.5536C15.5055 17.5536 14.6144 17.3804 13.7977 17.0662L13.2232 18.5595C14.2209 18.9433 15.3066 19.1536 16.4414 19.1536V17.5536ZM14.2753 18.0474C14.4166 17.5866 14.5101 17.1054 14.5503 16.6094L12.9555 16.4803C12.9248 16.8598 12.8533 17.2271 12.7456 17.5784L14.2753 18.0474ZM8.35152 12.4573C9.781 12.7344 10.9045 13.8001 11.2565 15.1471L12.8045 14.7426C12.2949 12.7925 10.6822 11.2794 8.65604 10.8865L8.35152 12.4573ZM10.4826 14.4847C9.87632 13.6225 9.46138 12.6244 9.29429 11.5491L7.71326 11.7947C7.91925 13.1205 8.43064 14.3482 9.17377 15.405L10.4826 14.4847ZM9.82818 15.7449H12.0305V14.1449H9.82818V15.7449ZM12.1454 15.7449H11.3212V17.3449H12.1454V15.7449ZM11.3504 16.4561C11.3339 16.6032 11.3086 16.7476 11.2748 16.8889L12.8311 17.2604C12.88 17.0557 12.9167 16.8465 12.9405 16.6337L11.3504 16.4561ZM12.485 16.4013C12.2559 16.2544 12.0359 16.095 11.8259 15.9242L10.8164 17.1655C11.0727 17.374 11.3413 17.5686 11.621 17.748L12.485 16.4013ZM8.64922 14.5624C8.14888 13.6431 7.81236 12.625 7.67776 11.5443L6.09003 11.742C6.24998 13.0262 6.65008 14.2363 7.24389 15.3273L8.64922 14.5624ZM6.75998 10.8528C4.20436 11.2535 2.25098 13.431 2.25098 16.0548H3.85098C3.85098 14.2502 5.19935 12.717 7.00781 12.4335L6.75998 10.8528ZM2.25098 16.0548C2.25098 18.6496 4.16158 20.808 6.67544 21.2428L6.94816 19.6662C5.16961 19.3586 3.85098 17.8394 3.85098 16.0548H2.25098ZM7.6118 20.4545V15.7449H6.0118V20.4545H7.6118ZM7.6118 15.7449V14.9449H6.0118V15.7449H7.6118ZM6.8118 15.7449H7.6118V14.1449H6.8118V15.7449ZM7.6118 15.7449H7.94656V14.1449H7.6118V15.7449ZM7.6118 16.5449V20.4545H9.2118V16.5449H7.6118ZM9.04412 15.7449H8.4118V17.3449H9.04412V15.7449ZM11.8104 17.8655C10.9941 17.3704 10.2657 16.7483 9.6542 16.0274L8.43404 17.0624C9.15706 17.9148 10.0173 18.6493 10.9807 19.2336L11.8104 17.8655ZM8.54816 21.2428C10.0071 20.9904 11.2588 20.1599 12.0547 19.0029L10.7364 18.0961C10.1804 18.9045 9.30255 19.4886 8.27544 19.6662L8.54816 21.2428ZM11.7803 21.3228H20.3145V19.7228H11.7803V21.3228ZM20.7839 19.875C20.4229 19.6135 20.0864 19.3212 19.7783 19.0022L18.6273 20.1135C19.0006 20.5002 19.4082 20.8541 19.8452 21.1707L20.7839 19.875ZM18.977 18.7904C18.1743 19.0265 17.3233 19.1536 16.4414 19.1536V20.7536C17.4777 20.7536 18.4808 20.6042 19.4286 20.3253L18.977 18.7904ZM16.4414 19.1536C15.2716 19.1536 14.1557 18.93 13.1348 18.5245L12.5441 20.0114C13.7502 20.4905 15.0663 20.7536 16.4414 20.7536V19.1536ZM12.1642 18.839C11.9082 19.242 11.598 19.6089 11.2436 19.9297L12.3171 21.116C12.7772 20.6997 13.1808 20.2226 13.5148 19.6969L12.1642 18.839ZM20.3266 19.5166C21.3545 20.3893 22.6251 20.9953 24.0274 21.223L24.2839 19.6436C23.1754 19.4637 22.1728 18.9852 21.3621 18.2969L20.3266 19.5166ZM23.2286 16.0274C22.4733 16.9178 21.5398 17.6574 20.4827 18.1932L21.206 19.6203C22.4536 18.988 23.5558 18.115 24.4487 17.0624L23.2286 16.0274ZM24.1556 15.7449H23.8387V17.3449H24.1556V15.7449ZM24.9556 20.4333V16.5449H23.3556V20.4333H24.9556Z" fill="#C1C1C6"/>
<path d="M8.11727 25.1429L5.96554 28.4" stroke="#54C9F9" stroke-width="0.8" stroke-linecap="square"/>
<path d="M12.4207 27.3143L9.19314 31.6571" stroke="#54C9F9" stroke-width="0.8" stroke-linecap="square"/>
<path d="M18.8759 25.1429L15.6483 29.4857" stroke="#54C9F9" stroke-width="0.8" stroke-linecap="square"/>
<path d="M25.3311 25.1429L21.0276 31.6571" stroke="#54C9F9" stroke-width="0.8" stroke-linecap="square"/>
<path d="M28.5586 29.4857L27.4828 31.6571" stroke="#54C9F9" stroke-width="0.8" stroke-linecap="square"/>
</svg>
