<svg width="32" height="32" viewBox="0 0 32 32" fill="none" xmlns="http://www.w3.org/2000/svg">
<g clip-path="url(#clip0)">
<path d="M32.0007 16.0001C32.0007 16.4635 31.625 16.8393 31.1615 16.8393H29.8411L31.0982 18.0963C31.4259 18.4241 31.4259 18.9555 31.0982 19.2831C30.7704 19.6108 30.2391 19.6109 29.9114 19.2831L27.4674 16.8392H26.2253L27.4823 18.0963C27.8101 18.424 27.8101 18.9554 27.4823 19.2831C27.1545 19.6108 26.6232 19.6108 26.2955 19.2831L23.8516 16.8392H18.0268L22.1456 20.9579H25.6018C26.0653 20.9579 26.441 21.3336 26.441 21.7971C26.441 22.2606 26.0653 22.6363 25.6018 22.6363H23.824L24.7024 23.5147H28.1586C28.6221 23.5147 28.9977 23.8904 28.9977 24.3539C28.9977 24.8174 28.6221 25.193 28.1586 25.193H26.3808L27.3146 26.1268C27.6423 26.4545 27.6423 26.9859 27.3146 27.3136C26.9868 27.6413 26.4554 27.6413 26.1278 27.3136L25.194 26.3798V28.1578C25.194 28.6213 24.8183 28.997 24.3548 28.997C23.8913 28.997 23.5157 28.6213 23.5157 28.1578V24.7017L22.6373 23.8233V25.601C22.6373 26.0645 22.2616 26.4402 21.7981 26.4402C21.3346 26.4402 20.9589 26.0645 20.9589 25.601V22.1448L16.8401 18.026V23.8508L19.2841 26.2947C19.6118 26.6225 19.6118 27.1538 19.2841 27.4815C18.9562 27.8093 18.4249 27.8093 18.0972 27.4815L16.8401 26.2245V27.4667L19.2841 29.9106C19.6118 30.2384 19.6118 30.7698 19.2841 31.0974C18.9562 31.4252 18.4249 31.4252 18.0972 31.0974L16.8401 29.8404V31.1608C16.84 31.6243 16.4643 32 16.0008 32C15.5374 32 15.1616 31.6243 15.1616 31.1608V29.8404L13.9046 31.0974C13.5768 31.4252 13.0455 31.4252 12.7178 31.0974C12.39 30.7697 12.39 30.2383 12.7178 29.9106L15.1617 27.4667V26.2245L13.9046 27.4815C13.5769 27.8093 13.0456 27.8093 12.7178 27.4815C12.3901 27.1538 12.3901 26.6224 12.7178 26.2947L15.1618 23.8508V18.026L11.043 22.1448V25.601C11.043 26.0645 10.6673 26.4402 10.2038 26.4402C9.7403 26.4402 9.36461 26.0645 9.36461 25.601V23.8233L8.48624 24.7017V28.1579C8.48624 28.6214 8.11056 28.9971 7.64706 28.9971C7.18356 28.9971 6.80788 28.6214 6.80788 28.1579V26.3802L5.87401 27.3137C5.54626 27.6415 5.01489 27.6415 4.6872 27.3137C4.35945 26.986 4.35945 26.4546 4.6872 26.1269L5.62095 25.1932H3.84308C3.37958 25.1932 3.0039 24.8175 3.0039 24.354C3.0039 23.8905 3.37958 23.5148 3.84308 23.5148H7.29925L8.17762 22.6364H6.39994C5.93644 22.6364 5.56076 22.2607 5.56076 21.7972C5.56076 21.3337 5.93644 20.9581 6.39994 20.9581H9.85611L13.9749 16.8393H8.15012L5.70613 19.2832C5.37838 19.6109 4.84707 19.6109 4.51933 19.2832C4.19158 18.9555 4.19158 18.4241 4.51933 18.0964L5.77638 16.8393H4.5342L2.09028 19.2832C1.76253 19.6109 1.23122 19.6109 0.903473 19.2832C0.575725 18.9555 0.575725 18.4241 0.903473 18.0964L2.16053 16.8393H0.840098C0.376601 16.8393 0.000915527 16.4636 0.000915527 16.0002C0.000915527 15.5367 0.376601 15.161 0.840098 15.161H2.16059L0.903535 13.9039C0.575787 13.5761 0.575787 13.0447 0.903535 12.717C1.06741 12.5532 1.28216 12.4712 1.49691 12.4712C1.71166 12.4712 1.92647 12.5532 2.09028 12.717L4.5342 15.161H5.77644L4.51939 13.9039C4.19164 13.5761 4.19164 13.0447 4.51939 12.717C4.68326 12.5532 4.89801 12.4712 5.11276 12.4712C5.32751 12.4712 5.54232 12.5532 5.70613 12.717L8.15006 15.161H13.9748L9.85605 11.0422H6.39988C5.93638 11.0422 5.5607 10.6665 5.5607 10.203C5.5607 9.7395 5.93638 9.36382 6.39988 9.36382H8.17762L7.29925 8.48545H3.84302C3.37952 8.48545 3.00384 8.10976 3.00384 7.64627C3.00384 7.18277 3.37952 6.80708 3.84302 6.80708H5.62076L4.68701 5.87334C4.35927 5.54559 4.35927 5.01428 4.68701 4.68653C4.85089 4.52266 5.06564 4.44072 5.28039 4.44072C5.49513 4.44072 5.70995 4.52266 5.87376 4.68653L6.8075 5.62028V3.84254C6.8075 3.37904 7.18319 3.00336 7.64668 3.00336C8.11018 3.00336 8.48587 3.37904 8.48587 3.84254V7.29871L9.36424 8.17707V6.39934C9.36424 5.93584 9.73992 5.56015 10.2034 5.56015C10.6669 5.56015 11.0426 5.93584 11.0426 6.39934V9.8555L15.1614 13.9743V8.14951L12.7175 5.70559C12.3897 5.37784 12.3897 4.84647 12.7175 4.51878C13.0452 4.19104 13.5766 4.19104 13.9043 4.51878L15.1613 5.77584V4.53366L12.7174 2.08974C12.3897 1.76199 12.3897 1.23062 12.7174 0.902929C12.8813 0.739056 13.096 0.657118 13.3108 0.657118C13.5256 0.657118 13.7403 0.739056 13.9041 0.902929L15.1612 2.15998V0.839554C15.1612 0.376057 15.537 0.000371933 16.0004 0.000371933C16.4639 0.000371933 16.8396 0.376057 16.8396 0.839554V2.15998L18.0967 0.902866C18.4244 0.575119 18.9558 0.575119 19.2835 0.902866C19.6112 1.23062 19.6112 1.76192 19.2835 2.08967L16.8396 4.5336V5.77584L18.0967 4.51872C18.2606 4.35485 18.4754 4.27291 18.6901 4.27291C18.9047 4.27291 19.1196 4.35485 19.2834 4.51872C19.6112 4.84647 19.6112 5.37778 19.2834 5.70553L16.8395 8.14945V13.9739L20.9583 9.85506V6.3989C20.9583 5.9354 21.334 5.55972 21.7975 5.55972C22.261 5.55972 22.6367 5.9354 22.6367 6.3989V8.17664L23.515 7.29827V3.8421C23.515 3.3786 23.8907 3.00292 24.3542 3.00292C24.8177 3.00292 25.1934 3.3786 25.1934 3.8421V5.61984L26.1271 4.6861C26.291 4.52222 26.5058 4.44028 26.7205 4.44028C26.9353 4.44028 27.1501 4.52222 27.3139 4.6861C27.6416 5.01384 27.6416 5.54515 27.3139 5.8729L26.3801 6.80664H28.1579C28.6214 6.80664 28.9971 7.18233 28.9971 7.64583C28.9971 8.10933 28.6214 8.48501 28.1579 8.48501H24.7017L23.8233 9.36338H25.6011C26.0646 9.36338 26.4403 9.73907 26.4403 10.2026C26.4403 10.6661 26.0646 11.0417 25.6011 11.0417H22.1449L18.0261 15.1605H23.8509L26.2948 12.7166C26.4587 12.5527 26.6735 12.4708 26.8882 12.4708C27.1029 12.4708 27.3178 12.5527 27.4816 12.7166C27.8093 13.0444 27.8093 13.5757 27.4816 13.9034L26.2245 15.1605H27.4667L29.9106 12.7166C30.0745 12.5527 30.2893 12.4708 30.504 12.4708C30.7187 12.4708 30.9335 12.5527 31.0974 12.7166C31.4251 13.0444 31.4251 13.5757 31.0974 13.9034L29.8402 15.1605H31.1607C31.625 15.1609 32.0007 15.5366 32.0007 16.0001Z" fill="#80C7EA"/>
</g>
<defs>
<clipPath id="clip0">
<rect width="32" height="32" transform="matrix(1 0 0 -1 0 32)" fill="white"/>
</clipPath>
</defs>
</svg>
