<svg width="32" height="32" viewBox="0 0 32 32" fill="none" xmlns="http://www.w3.org/2000/svg">
<path d="M31.7396 13.1495L28.3166 16.169L31.6186 19.3189C31.7399 19.4347 31.7898 19.6059 31.7498 19.7683C31.7096 19.9306 31.5855 20.0592 31.4241 20.1058L27.0293 21.3741L28.6536 25.6276C28.7133 25.7838 28.6845 25.9598 28.5783 26.0894C28.4721 26.2189 28.3044 26.2822 28.1385 26.2554L23.6213 25.5272L23.254 30.0623C23.2405 30.2289 23.1386 30.3757 22.9868 30.4473C22.835 30.5189 22.6561 30.5046 22.5178 30.4097L18.7511 27.8259L16.4631 31.7661C16.379 31.9109 16.2237 32 16.0556 32C15.8875 32 15.7322 31.9109 15.6481 31.7661L13.0217 27.2431L8.47858 29.8652C8.33314 29.9491 8.15377 29.9495 8.00808 29.8663C7.86227 29.7831 7.77227 29.6289 7.77183 29.4618L7.76083 24.9121L3.20052 25.2879C3.03333 25.3017 2.87083 25.2256 2.77508 25.0883C2.67927 24.951 2.66439 24.7733 2.73621 24.6221L4.68883 20.5074L0.406768 18.9024C0.249518 18.8434 0.13583 18.7055 0.108455 18.5406C0.0810803 18.3757 0.144393 18.2088 0.274455 18.1029L3.81314 15.2184L0.63733 11.9428C0.520705 11.8224 0.477393 11.6494 0.52383 11.4888C0.57033 11.3281 0.699455 11.2044 0.862518 11.1641L5.30345 10.0672L3.84752 5.754C3.79402 5.59556 3.82964 5.42081 3.94089 5.2955C4.0522 5.17019 4.22227 5.11344 4.38695 5.14663L8.87195 6.04931L9.41702 1.53194C9.43695 1.366 9.54458 1.22331 9.69908 1.15756C9.8537 1.09181 10.0318 1.11306 10.1663 1.21325L13.8285 3.94119L16.2695 0.218313C16.3558 0.0821266 16.5063 6.29425e-05 16.6674 6.29425e-05C16.6735 6.29425e-05 16.6796 0.00018692 16.6858 0.000436783C16.8538 0.00693703 17.0055 0.102062 17.0838 0.249937L19.2155 4.15025L23.0805 1.71437C23.2225 1.62487 23.4015 1.6175 23.5506 1.695C23.6995 1.7725 23.7955 1.92312 23.8025 2.09012L23.9919 6.636L28.534 6.0835C28.7005 6.06325 28.8659 6.13294 28.967 6.26644C29.0681 6.4 29.0899 6.577 29.0241 6.73081L27.2344 10.9181L31.576 12.3558C31.7355 12.4086 31.8545 12.542 31.8883 12.7057C31.922 12.8694 31.8653 13.0386 31.7396 13.1495Z" fill="#FFA600"/>
<path d="M15.8969 6.39749C21.2495 6.39749 25.5887 10.7333 25.5887 16.0818C25.5887 21.4303 21.2495 25.7661 15.8969 25.7661C10.5442 25.7661 6.20508 21.4303 6.20508 16.0818C6.20508 10.7333 10.5442 6.39749 15.8969 6.39749Z" fill="#FFDB2D"/>
<path d="M15.8971 25.7661C15.6543 25.7661 15.4138 25.7569 15.1757 25.7393C20.1913 25.3705 24.146 21.1877 24.146 16.0817C24.146 10.9758 20.1913 6.79304 15.1757 6.42416C15.4138 6.40666 15.6544 6.39742 15.8971 6.39742C21.2497 6.39742 25.5888 10.7332 25.5888 16.0817C25.5888 21.4302 21.2497 25.7661 15.8971 25.7661Z" fill="#FFCA00"/>
</svg>
