<?xml version="1.0"?>
<svg xmlns="http://www.w3.org/2000/svg" height="512px" viewBox="0 0 512 511" width="512px" class=""><g><path d="m213.617188 61.339844h26.308593c2.75 0 5 2.25 5 5v48.003906l6.859375-4.386719c2.320313-1.480469 6.109375-1.480469 8.429688 0l6.859375 4.386719v-48.003906c0-2.75 2.25-5 5-5h26.308593c2.75 0 5-2.25 5-5v-12.226563c0-2.75-2.25-5-5-5h-26.308593c-2.75 0-5-2.25-5-5v-21.113281c0-2.75-2.25-5-5-5h-12.148438c-2.75 0-5 2.25-5 5v21.117188c0 2.75-2.25 5-5 5h-26.308593c-2.75 0-5 2.25-5 5v12.222656c0 2.75 2.25 5 5 5zm0 0" fill="#ff812c" data-original="#FF812C" class="" style="fill:#FF812C"/><path d="m251.785156 185.945312c2.320313-1.480468 6.109375-1.480468 8.429688 0l93.144531 59.550782v-70.988282c0-2.75-1.894531-6.210937-4.210937-7.691406l-88.933594-56.859375c-2.320313-1.480469-6.109375-1.480469-8.429688 0l-88.933594 56.859375c-2.316406 1.480469-4.210937 4.941406-4.210937 7.691406v70.988282zm0 0" fill="#ffaf68" data-original="#FFAF68" class="" style="fill:#FFAF68"/><path d="m179.277344 232.300781v-47.71875c0-2.75 1.898437-6.210937 4.214844-7.691406l88.933593-56.859375c.636719-.40625 1.382813-.691406 2.175781-.875l-14.390624-9.199219c-2.316407-1.480469-6.105469-1.480469-8.425782 0l-88.933594 56.859375c-2.320312 1.480469-4.214843 4.941406-4.214843 7.691406v70.988282zm0 0" fill="#ff9b50" data-original="#FF9B50"/><path d="m477.175781 356.449219-53.867187-30.574219v-30.65625c0-2.75-1.898438-6.214844-4.214844-7.695312l-158.878906-101.578126c-2.320313-1.480468-6.109375-1.480468-8.429688 0l-158.878906 101.578126c-2.316406 1.480468-4.214844 4.941406-4.214844 7.691406v30.660156l-53.871094 30.570312c-2.707031 1.402344-4.917968 5.050782-4.917968 8.105469v139.59375h452.195312v-139.589843c0-3.058594-2.210937-6.707032-4.921875-8.105469zm0 0" fill="#ffaf68" data-original="#FFAF68" class="" style="fill:#FFAF68"/><path d="m88.691406 325.875-53.871094 30.570312c-2.707031 1.402344-4.917968 5.050782-4.917968 8.105469v139.59375h20.902344v-129.183593c0-3.054688 2.210937-6.703126 4.917968-8.105469l32.96875-18.710938zm0 0" fill="#ff9b50" data-original="#FF9B50"/><path d="m260.214844 185.945312c-2.320313-1.480468-6.109375-1.480468-8.429688 0l-158.878906 101.578126c-2.316406 1.480468-4.214844 4.941406-4.214844 7.691406v203.929687c0 2.75 2.25 5 5 5h324.617188c2.75 0 5-2.25 5-5v-203.929687c0-2.75-1.898438-6.210938-4.214844-7.691406zm0 0" fill="#ff99a3" data-original="#FF99A3" class=""/><path d="m109.386719 305.453125c0-2.75 1.894531-6.210937 4.210937-7.691406l158.882813-101.578125c.675781-.429688 1.480469-.722656 2.335937-.902344l-14.601562-9.335938c-2.320313-1.480468-6.109375-1.480468-8.429688 0l-158.878906 101.578126c-2.316406 1.480468-4.214844 4.941406-4.214844 7.691406v203.929687c0 2.75 2.25 5 5 5h15.695313zm0 0" fill="#f66" data-original="#F66"/><path d="m296.425781 504.144531v-77.230469c0-22.402343-18.101562-40.5625-40.425781-40.5625-22.328125 0-40.425781 18.160157-40.425781 40.5625v77.230469zm0 0" fill="#602f0e" data-original="#602F0E"/><path d="m256 386.351562c-22.328125 0-40.425781 18.160157-40.425781 40.5625v77.230469h40.425781zm0 0" fill="#7f441c" data-original="#7F441C"/><path d="m166.800781 457.25c0 2.75-2.25 5-5 5h-29c-2.75 0-5-2.25-5-5v-71.789062c0-2.75 2.25-5 5-5h29c2.75 0 5 2.25 5 5zm0 0" fill="#abebff" data-original="#ABEBFF"/><path d="m142 457.25v-71.789062c0-2.75 2.25-5 5-5h-14.199219c-2.75 0-5 2.25-5 5v71.789062c0 2.75 2.25 5 5 5h14.199219c-2.75 0-5-2.25-5-5zm0 0" fill="#76d8ff" data-original="#76D8FF"/><path d="m384.195312 457.25c0 2.75-2.25 5-5 5h-29c-2.75 0-5-2.25-5-5v-71.789062c0-2.75 2.25-5 5-5h29c2.75 0 5 2.25 5 5zm0 0" fill="#abebff" data-original="#ABEBFF"/><path d="m359.394531 457.25v-71.789062c0-2.75 2.25-5 5-5h-14.195312c-2.75 0-5 2.25-5 5v71.789062c0 2.75 2.25 5 5 5h14.195312c-2.75 0-5-2.25-5-5zm0 0" fill="#76d8ff" data-original="#76D8FF"/><path d="m166.800781 346.988281c0 2.75-2.25 5-5 5h-29c-2.75 0-5-2.25-5-5v-35.617187c0-2.75 2.25-5 5-5h29c2.75 0 5 2.25 5 5zm0 0" fill="#abebff" data-original="#ABEBFF"/><path d="m142 346.988281v-35.617187c0-2.75 2.25-5 5-5h-14.199219c-2.75 0-5 2.25-5 5v35.617187c0 2.75 2.25 5 5 5h14.199219c-2.75 0-5-2.25-5-5zm0 0" fill="#76d8ff" data-original="#76D8FF"/><path d="m384.195312 346.988281c0 2.75-2.25 5-5 5h-29c-2.75 0-5-2.25-5-5v-35.617187c0-2.75 2.25-5 5-5h29c2.75 0 5 2.25 5 5zm0 0" fill="#abebff" data-original="#ABEBFF"/><path d="m359.394531 346.988281v-35.617187c0-2.75 2.25-5 5-5h-14.195312c-2.75 0-5 2.25-5 5v35.617187c0 2.75 2.25 5 5 5h14.195312c-2.75 0-5-2.25-5-5zm0 0" fill="#76d8ff" data-original="#76D8FF"/><path d="m297.125 301.914062c0-22.730468-18.414062-41.160156-41.125-41.160156s-41.125 18.429688-41.125 41.160156c0 22.730469 18.414062 41.160157 41.125 41.160157s41.125-18.429688 41.125-41.160157zm0 0" fill="#fff" data-original="#FFF" class=""/><path d="m235.75 301.914062c0-19.121093 13.03125-35.195312 30.6875-39.816406-3.335938-.875-6.832031-1.34375-10.4375-1.34375-22.710938 0-41.125 18.429688-41.125 41.160156 0 22.730469 18.414062 41.160157 41.125 41.160157 3.605469 0 7.101562-.46875 10.4375-1.34375-17.65625-4.621094-30.6875-20.695313-30.6875-39.816407zm0 0" fill="#def9ff" data-original="#DEF9FF" class=""/><path d="m504.5 496.644531h-14.902344v-132.089843c0-5.808594-3.699218-11.953126-8.820312-14.6875l-49.96875-28.359376v-17.59375l16.949218 10.835938c1.25.800781 2.648438 1.183594 4.03125 1.183594 2.472657 0 4.894532-1.222656 6.324219-3.460938 2.230469-3.492187 1.210938-8.128906-2.277343-10.359375l-94.976563-60.722656v-17.316406c0-4.144531-3.355469-7.5-7.5-7.5-4.140625 0-7.5 3.355469-7.5 7.5v7.726562l-81.605469-52.175781c-4.785156-3.054688-11.726562-3.054688-16.507812 0l-81.605469 52.175781v-58.1875l89.53125-57.242187c.179687-.035156.476563-.035156.65625 0l89.53125 57.242187v15.460938c0 4.140625 3.359375 7.5 7.5 7.5 4.144531 0 7.5-3.359375 7.5-7.5v-5.871094l8.953125 5.726563c1.253906.800781 2.652344 1.179687 4.035156 1.179687 2.472656 0 4.894532-1.222656 6.324219-3.460937 2.230469-3.488282 1.210937-8.125-2.277344-10.359376l-103.320312-66.054687v-41.394531h23.808593c6.894532 0 12.5-5.605469 12.5-12.5v-12.226563c0-6.890625-5.605468-12.5-12.5-12.5h-23.808593v-18.613281c0-6.894531-5.605469-12.5-12.5-12.5h-12.148438c-6.894531 0-12.5 5.605469-12.5 12.5v18.617188h-23.808593c-6.894532 0-12.5 5.605468-12.5 12.5v12.222656c0 6.894531 5.605468 12.5 12.5 12.5h23.808593v41.398437l-103.320312 66.054688c-3.488281 2.230469-4.507813 6.867187-2.277344 10.359375 2.230469 3.488281 6.867187 4.507812 10.359375 2.277344l8.953125-5.722657v58.183594l-94.980469 60.722656c-3.488281 2.230469-4.507812 6.867188-2.277344 10.359375 2.230469 3.488282 6.871094 4.507813 10.359376 2.277344l16.949218-10.835938v17.59375l-49.972656 28.359376c-5.121094 2.734374-8.820312 8.878906-8.820312 14.6875v132.09375h-14.898438c-4.140625 0-7.5 3.355468-7.5 7.5 0 4.140624 3.359375 7.5 7.5 7.5h497c4.144531 0 7.5-3.359376 7.5-7.5 0-4.144532-3.355469-7.503907-7.5-7.503907zm-288.382812-442.804687v-7.222656h23.808593c6.890625 0 12.5-5.609376 12.5-12.5v-18.617188h7.148438v18.617188c0 6.890624 5.609375 12.5 12.5 12.5h23.808593v7.222656h-23.808593c-6.890625 0-12.5 5.609375-12.5 12.5v35.398437c-2.335938-.515625-4.816407-.515625-7.148438 0v-35.398437c0-6.890625-5.609375-12.5-12.5-12.5zm-134.925782 442.804687h-43.789062l-.003906-132.015625c.054687-.4375.582031-1.3125.871093-1.523437.085938-.042969.171875-.089844.253907-.136719l42.667968-24.214844zm167.308594 0h-25.425781v-69.730469c0-15.640624 10.875-28.769531 25.425781-32.1875zm40.425781 0h-25.425781v-101.917969c14.554688 3.417969 25.425781 16.546876 25.425781 32.1875zm185.671875 0h-43.789062v-95.570312c0-4.144531-3.359375-7.5-7.5-7.5-4.144532 0-7.5 3.355469-7.5 7.5v95.570312h-111.882813v-69.730469c0-26.503906-21.5-48.0625-47.925781-48.0625s-47.925781 21.558594-47.925781 48.0625v69.730469h-111.882813v-202.320312l159.480469-101.960938c.179687-.039062.476563-.039062.65625 0l159.480469 101.960938v70.75c0 4.140625 3.355468 7.5 7.5 7.5 4.140625 0 7.5-3.359375 7.5-7.5v-26.320313l42.667968 24.21875c.082032.046875.097657.050782.183594.09375.359375.25.890625 1.125.9375 1.488282zm0 0" data-original="#000000" class="active-path" style="fill:#FF6F21" data-old_color="#000000"/><path d="m161.800781 372.960938h-29c-6.890625 0-12.5 5.609374-12.5 12.5v71.789062c0 6.894531 5.609375 12.5 12.5 12.5h29c6.894531 0 12.5-5.605469 12.5-12.5v-17.175781c0-4.144531-3.355469-7.5-7.5-7.5-4.140625 0-7.5 3.355469-7.5 7.5v14.675781h-24v-66.789062h24v16.113281c0 4.140625 3.359375 7.5 7.5 7.5 4.144531 0 7.5-3.359375 7.5-7.5v-18.613281c0-6.890626-5.605469-12.5-12.5-12.5zm0 0" data-original="#000000" class="active-path" style="fill:#FF6F21" data-old_color="#000000"/><path d="m379.195312 372.960938h-29c-6.890624 0-12.5 5.609374-12.5 12.5v71.789062c0 6.894531 5.609376 12.5 12.5 12.5h29c6.894532 0 12.5-5.605469 12.5-12.5v-71.789062c0-6.890626-5.605468-12.5-12.5-12.5zm-2.5 81.789062h-24v-66.789062h24zm0 0" data-original="#000000" class="active-path" style="fill:#FF6F21" data-old_color="#000000"/><path d="m161.800781 298.871094h-29c-6.890625 0-12.5 5.605468-12.5 12.5v35.617187c0 6.890625 5.609375 12.5 12.5 12.5h29c6.894531 0 12.5-5.609375 12.5-12.5v-35.617187c0-6.894532-5.605469-12.5-12.5-12.5zm-2.5 45.617187h-24v-30.617187h24zm0 0" data-original="#000000" class="active-path" style="fill:#FF6F21" data-old_color="#000000"/><path d="m379.195312 298.871094h-29c-6.890624 0-12.5 5.605468-12.5 12.5v35.617187c0 6.890625 5.609376 12.5 12.5 12.5h29c6.894532 0 12.5-5.609375 12.5-12.5v-35.617187c0-6.894532-5.605468-12.5-12.5-12.5zm-2.5 45.617187h-24v-30.617187h24zm0 0" data-original="#000000" class="active-path" style="fill:#FF6F21" data-old_color="#000000"/><path d="m256 253.253906c-26.8125 0-48.625 21.828125-48.625 48.660156 0 26.832032 21.8125 48.660157 48.625 48.660157s48.625-21.832031 48.625-48.660157c0-26.832031-21.8125-48.660156-48.625-48.660156zm0 82.320313c-18.539062 0-33.625-15.101563-33.625-33.660157 0-18.558593 15.085938-33.660156 33.625-33.660156s33.625 15.101563 33.625 33.660156c0 18.558594-15.085938 33.660157-33.625 33.660157zm0 0" data-original="#000000" class="active-path" style="fill:#FF6F21" data-old_color="#000000"/></g> </svg>
