<svg xmlns="http://www.w3.org/2000/svg" xmlns:xlink="http://www.w3.org/1999/xlink" version="1.1" id="Capa_1" x="0px" y="0px" viewBox="0 0 430.08 430.08" style="enable-background:new 0 0 430.08 430.08;background: #181818;" xml:space="preserve" width="512px" height="512px" class=""><g><polygon style="fill: #000;" points="256,423.253 174.08,423.253 181.528,177.493 248.552,177.493 " data-original="#FFFFFF" class="" data-old_color="#FFFFFF"/><path style="fill: lightskyblue;" d="M256,430.08h-81.92c-1.847,0-3.615-0.747-4.902-2.072c-1.287-1.324-1.98-3.113-1.922-4.96  l7.448-245.76c0.109-3.69,3.133-6.622,6.823-6.622h67.028c3.69,0,6.714,2.932,6.823,6.618l7.448,245.76  c0.058,1.847-0.638,3.632-1.922,4.96C259.622,429.333,257.847,430.08,256,430.08z M181.118,416.427h67.847L241.93,184.32h-53.78  L181.118,416.427z" data-original="#602F75" class="active-path" data-old_color="#602F75"/><g>
	<rect x="201.387" y="184.32" style="fill:#FFE600;" width="27.307" height="204.8" data-original="#FFE600" class=""/>
	<rect x="201.387" y="395.947" style="fill:#EA3457;" width="27.307" height="27.307" data-original="#EA3457" class=""/>
</g><path style="fill:#F4CAC9" d="M228.693,430.08h-27.307c-3.768,0-6.827-3.058-6.827-6.827v-27.307c0-3.768,3.058-6.827,6.827-6.827  h27.307c3.768,0,6.827,3.058,6.827,6.827v27.307C235.52,427.022,232.462,430.08,228.693,430.08z M208.213,416.427h13.653v-13.653  h-13.653V416.427z" data-original="#602F75" class="active-path" data-old_color="#602F75"/><path style="fill:#00E7FF" d="M262.188,177.493H126.293v-13.015c0-19.203,15.568-34.772,34.772-34.772H296.96v13.015  C296.96,161.925,281.392,177.493,262.188,177.493z" data-original="#00E7FF" class="" data-old_color="#00E7FF"/><path style="fill: lightskyblue;" d="M262.188,184.32H126.293c-3.768,0-6.827-3.058-6.827-6.827v-13.015  c0-22.938,18.661-41.598,41.598-41.598H296.96c3.768,0,6.827,3.058,6.827,6.827v13.015  C303.787,165.659,285.126,184.32,262.188,184.32z M133.12,170.667h129.068c15.408,0,27.945-12.537,27.945-27.945v-6.188H161.065  c-15.408,0-27.945,12.537-27.945,27.945V170.667z" data-original="#602F75" class="active-path" data-old_color="#602F75"/><polygon style="fill: #000;" points="235.52,81.92 194.56,81.92 187.733,129.707 242.347,129.707 " data-original="#FFFFFF" class="" data-old_color="#FFFFFF"/><path style="fill: lightskyblue;" d="M242.347,136.533h-54.613c-1.98,0-3.86-0.86-5.158-2.352c-1.297-1.495-1.881-3.482-1.601-5.441  l6.827-47.787c0.481-3.366,3.362-5.861,6.758-5.861h40.96c3.396,0,6.277,2.495,6.755,5.861l6.827,47.787  c0.28,1.959-0.304,3.942-1.601,5.441C246.207,135.673,244.326,136.533,242.347,136.533z M195.604,122.88h38.874l-4.878-34.133  h-29.119L195.604,122.88z" data-original="#602F75" class="active-path" data-old_color="#602F75"/><path style="fill:#EA3457;" d="M215.04,40.96L215.04,40.96c-11.312,0-20.48,9.168-20.48,20.48v20.48h40.96V61.44  C235.52,50.128,226.352,40.96,215.04,40.96z" data-original="#EA3457" class=""/><g>
	<path style="fill: lightskyblue;" d="M235.52,88.747h-40.96c-3.768,0-6.827-3.058-6.827-6.827V61.44c0-15.056,12.25-27.307,27.307-27.307   c15.056,0,27.307,12.25,27.307,27.307v20.48C242.347,85.688,239.288,88.747,235.52,88.747z M201.387,75.093h27.307V61.44   c0-7.53-6.124-13.653-13.653-13.653s-13.653,6.124-13.653,13.653V75.093z" data-original="#602F75" class="active-path" data-old_color="#602F75"/>
	<path style="fill: lightskyblue;" d="M215.04,47.787c-3.768,0-6.827-3.058-6.827-6.827V6.827c0-3.768,3.058-6.827,6.827-6.827   s6.827,3.058,6.827,6.827V40.96C221.867,44.728,218.808,47.787,215.04,47.787z" data-original="#602F75" class="active-path" data-old_color="#602F75"/>
	<path style="fill: lightskyblue;" d="M351.573,430.08H78.507c-3.768,0-6.827-3.058-6.827-6.827c0-3.768,3.058-6.827,6.827-6.827h273.067   c3.768,0,6.827,3.058,6.827,6.827C358.4,427.022,355.342,430.08,351.573,430.08z" data-original="#602F75" class="active-path" data-old_color="#602F75"/>
	<path style="fill: #EA3457;" d="M290.133,157.013H133.12c-3.768,0-6.827-3.058-6.827-6.827c0-3.768,3.058-6.827,6.827-6.827h157.013   c3.768,0,6.827,3.058,6.827,6.827C296.96,153.955,293.902,157.013,290.133,157.013z" data-original="#602F75" class="active-path" data-old_color="#602F75"/>
</g></g> </svg>