<svg height="480pt" viewBox="0 -16 480 480" width="480pt" xmlns="http://www.w3.org/2000/svg"><path d="m440 104h16v24h-16zm0 0" fill="#bc7569"/><path d="m352 120h16v40h-16zm0 0" fill="#c7c1b8"/><path d="m384 256v-32l4.800781-9.601562c2.398438-4.796876 3.199219-9.597657 3.199219-14.398438v-8c0-10.398438-4.800781-19.199219-12.800781-25.601562l-19.199219-14.398438-19.199219 14.398438c-8 6.402343-12.800781 15.203124-12.800781 25.601562v8.800781c0 4.800781.800781 9.597657 3.199219 14.398438l4.800781 8.800781v32" fill="#c7c1b8"/><path d="m436.800781 131.199219 11.199219-11.199219 11.199219 11.199219c3.199219 3.199219 4.800781 7.199219 4.800781 11.199219v57.601562h-32v-57.601562c0-4 1.601562-8 4.800781-11.199219zm0 0" fill="#bc7569"/><path d="m472 200v24l-8 8v208h-32v-208l-8-8v-24zm0 0" fill="#bc7569"/><path d="m432 232h32l8-8v-24h-48v24zm0 0" fill="#a86557"/><path d="m340.800781 166.398438 19.199219-14.398438 19.199219 14.398438c8 6.402343 12.800781 15.203124 12.800781 25.601562h-64c0-10.398438 4.800781-19.199219 12.800781-25.601562zm0 0" fill="#b2aca3"/><path d="m448 120 11.199219 11.199219c3.199219 3.199219 4.800781 7.199219 4.800781 11.199219v17.601562h-32v-17.601562c0-4 1.601562-8 4.800781-11.199219zm0 0" fill="#c7c1b8"/><path d="m32 256h400v184h-400zm0 0" fill="#a86557"/><path d="m24 104h16v24h-16zm0 0" fill="#bc7569"/><g fill="#c7c1b8"><path d="m112 120h16v40h-16zm0 0"/><path d="m232 0h16v48h-16zm0 0"/><path d="m277.601562 63.199219-37.601562-23.199219-37.601562 23.199219c-16 10.402343-26.398438 28-26.398438 47.199219v6.402343c0 12 4 24 11.199219 33.597657l12.800781 17.601562v16h80v-16l12.800781-16.800781c7.199219-9.597657 11.199219-21.597657 11.199219-33.597657v-6.402343c0-19.199219-9.601562-37.597657-26.398438-48zm0 0"/></g><path d="m184 184h112v256h-112zm0 0" fill="#bc7569"/><path d="m259.199219 275.199219-19.199219-19.199219-19.199219 19.199219c-3.199219 3.199219-4.800781 7.199219-4.800781 11.199219v153.601562h48v-153.601562c0-4-1.601562-8-4.800781-11.199219zm0 0" fill="#4f4b47"/><path d="m371.199219 355.199219-11.199219-11.199219-11.199219 11.199219c-3.199219 3.199219-4.800781 7.199219-4.800781 11.199219v73.601562h32v-73.601562c0-4-1.601562-8-4.800781-11.199219zm0 0" fill="#4f4b47"/><path d="m131.199219 355.199219-11.199219-11.199219-11.199219 11.199219c-3.199219 3.199219-4.800781 7.199219-4.800781 11.199219v73.601562h32v-73.601562c0-4-1.601562-8-4.800781-11.199219zm0 0" fill="#4f4b47"/><path d="m96 256v-32l-4.800781-9.601562c-2.398438-4.796876-3.199219-9.597657-3.199219-14.398438v-8c0-10.398438 4.800781-19.199219 12.800781-25.601562l19.199219-14.398438 19.199219 14.398438c8 6.402343 12.800781 15.203124 12.800781 25.601562v8.800781c0 4.800781-.800781 9.597657-3.199219 14.398438l-4.800781 8.800781v32" fill="#c7c1b8"/><path d="m43.199219 131.199219-11.199219-11.199219-11.199219 11.199219c-3.199219 3.199219-4.800781 7.199219-4.800781 11.199219v57.601562h32v-57.601562c0-4-1.601562-8-4.800781-11.199219zm0 0" fill="#bc7569"/><path d="m8 200v24l8 8v208h32v-208l8-8v-24zm0 0" fill="#bc7569"/><path d="m48 232h-32l-8-8v-24h48v24zm0 0" fill="#a86557"/><path d="m178.398438 96h124c-4-13.601562-12-24.800781-24-32.800781l-38.398438-23.199219-37.601562 23.199219c-12 8-20.796876 19.199219-24 32.800781zm0 0" fill="#b2aca3"/><path d="m139.199219 166.398438-19.199219-14.398438-19.199219 14.398438c-8 6.402343-12.800781 15.203124-12.800781 25.601562h64c0-10.398438-4.800781-19.199219-12.800781-25.601562zm0 0" fill="#b2aca3"/><path d="m96 224h48v32h-48zm0 0" fill="#b2aca3"/><path d="m184 184h112v32h-112zm0 0" fill="#a86557"/><path d="m32 120-11.199219 11.199219c-3.199219 3.199219-4.800781 7.199219-4.800781 11.199219v17.601562h32v-17.601562c0-4-1.601562-8-4.800781-11.199219zm0 0" fill="#c7c1b8"/><path d="m0 432h480v16h-480zm0 0" fill="#7a4540"/><path d="m336 224h48v32h-48zm0 0" fill="#b2aca3"/></svg>