<svg id="Capa_1" enable-background="new 0 0 512 512" height="512" viewBox="0 0 512 512" width="512" xmlns="http://www.w3.org/2000/svg"><g><path d="m471.367 467.617-130.902-248.713-34.544-13.913-34.89 13.731-9.233 17.541v244.987h210.617z" fill="#685e68"/><path d="m471.367 467.617-130.843-248.602-46.919-43.185 153.572 291.787 1.048 13.633h24.19z" fill="#554e56"/><path d="m300.391 162.938-29.568 56.179h69.754l-29.568-56.179c-2.249-4.274-8.369-4.274-10.618 0z" fill="#c8effe"/><path d="m316.387 219.117h24.19l-29.568-56.179c-2.249-4.274-8.37-4.274-10.619 0l-6.785 12.892z" fill="#99e2fc"/><path d="m371.967 467.617v13.633h-331.333v-13.633l102.722-215.718 70.38-39.151 55.833 39.834z" fill="#e5e1e5"/><path d="m194.932 143.591 154.298 324.026v13.633h22.737v-13.633l-102.527-215.307z" fill="#d7d0d6"/><path d="m211.717 131.093c-2.172-4.561-8.663-4.561-10.834 0l-57.694 121.157h126.222z" fill="#c8effe"/><path d="m246.674 252.25h22.737l-57.694-121.157c-2.172-4.561-8.663-4.561-10.834 0l-5.951 12.498z" fill="#99e2fc"/><path d="m32.067 467.617h447.867c4.418 0 8 3.582 8 8v25.133h-463.867v-25.133c0-4.419 3.581-8 8-8z" fill="#a2e62e"/><path d="m479.933 467.617h-23.036c4.418 0 8 3.582 8 8v25.133h23.036v-25.133c0-4.419-3.581-8-8-8z" fill="#89d12a"/><g><path d="m504.5 508.25h-497c-4.142 0-7.5-3.358-7.5-7.5s3.358-7.5 7.5-7.5h497c4.142 0 7.5 3.358 7.5 7.5s-3.358 7.5-7.5 7.5z" fill="#ac5e2e"/></g><circle cx="322.267" cy="53.45" fill="#ffd900" r="49.7"/><path d="m322.267 3.75c-3.96 0-7.807.477-11.5 1.352 21.901 5.191 38.2 24.86 38.2 48.348s-16.299 43.157-38.2 48.348c3.693.875 7.54 1.352 11.5 1.352 27.448 0 49.7-22.251 49.7-49.7s-22.252-49.7-49.7-49.7z" fill="#fb0"/><g><g><path d="m438.233 475.117c-4.142 0-7.5-3.358-7.5-7.5v-33.133c0-4.142 3.358-7.5 7.5-7.5s7.5 3.358 7.5 7.5v33.133c0 4.142-3.358 7.5-7.5 7.5z" fill="#ac5e2e"/></g><path d="m463.042 434.483h-49.617c-4.095 0-6.987-4.012-5.692-7.897l24.809-74.426c1.823-5.47 9.561-5.47 11.384 0l24.809 74.426c1.294 3.885-1.598 7.897-5.693 7.897z" fill="#a2e62e"/><path d="m468.734 426.586-24.809-74.426c-1.823-5.47-9.561-5.47-11.384 0l-5.808 17.424 19.001 57.003c1.295 3.885-1.597 7.897-5.692 7.897h23c4.095-.001 6.987-4.013 5.692-7.898z" fill="#89d12a"/></g><g><g><path d="m338.833 475.117c-4.142 0-7.5-3.358-7.5-7.5v-33.133c0-4.142 3.358-7.5 7.5-7.5s7.5 3.358 7.5 7.5v33.133c0 4.142-3.357 7.5-7.5 7.5z" fill="#ac5e2e"/></g><path d="m363.642 434.483h-49.617c-4.095 0-6.987-4.012-5.692-7.897l24.809-74.426c1.823-5.47 9.561-5.47 11.384 0l24.809 74.426c1.294 3.885-1.598 7.897-5.693 7.897z" fill="#a2e62e"/><path d="m369.334 426.586-24.809-74.426c-1.823-5.47-9.561-5.47-11.384 0l-5.808 17.424 19.001 57.003c1.295 3.885-1.597 7.897-5.692 7.897h23c4.095-.001 6.987-4.013 5.692-7.898z" fill="#89d12a"/></g><g><g><path d="m239.433 475.117c-4.142 0-7.5-3.358-7.5-7.5v-33.133c0-4.142 3.358-7.5 7.5-7.5s7.5 3.358 7.5 7.5v33.133c0 4.142-3.358 7.5-7.5 7.5z" fill="#ac5e2e"/></g><path d="m264.242 434.483h-49.618c-4.095 0-6.987-4.012-5.692-7.897l24.809-74.426c1.823-5.47 9.561-5.47 11.384 0l24.809 74.426c1.295 3.885-1.597 7.897-5.692 7.897z" fill="#a2e62e"/><path d="m269.934 426.586-24.809-74.426c-1.823-5.47-9.561-5.47-11.384 0l-5.808 17.424 19.001 57.003c1.295 3.885-1.597 7.897-5.692 7.897h23c4.095-.001 6.987-4.013 5.692-7.898z" fill="#89d12a"/></g></g></svg>