<svg height="512" viewBox="0 0 64 64" width="512" xmlns="http://www.w3.org/2000/svg"><g id="flat"><path d="m15 3h34v4h-34z" fill="#d3843d"/><path d="m15 15h34v4h-34z" fill="#d3843d"/><path d="m17 7h30v8h-30z" fill="#ffd782"/><g fill="#f4f4e6"><path d="m21 10h2v2h-2z"/><path d="m26 10h2v2h-2z"/><path d="m31 10h2v2h-2z"/><path d="m36 10h2v2h-2z"/><path d="m41 10h2v2h-2z"/></g><path d="m16 19h32v42h-32z" fill="#ffd782"/><path d="m42 35v26h-20v-26a10 10 0 0 1 5.06-8.69 9.6 9.6 0 0 1 1.82-.81 9.984 9.984 0 0 1 6.24 0 9.987 9.987 0 0 1 1.83.81 10.18 10.18 0 0 1 2.12 1.62 9.969 9.969 0 0 1 2.93 7.07z" fill="#f4f4e6"/><path d="m22 51h20v4h-20z" fill="#d3843d"/><path d="m26 55h4v6h-4z" fill="#ad6327"/><path d="m34 55h4v6h-4z" fill="#ad6327"/><path d="m36.95 26.31-2.02 5.06a1 1 0 0 1 -.93.63h-1v4.4h-2v-4.4h-1a1 1 0 0 1 -.93-.63l-2.01-5.06a9.6 9.6 0 0 1 1.82-.81l1.8 4.5h2.64l1.8-4.5a9.987 9.987 0 0 1 1.83.81z" fill="#ad6327"/><path d="m20 23h5l-5 5z" fill="#d3843d"/><path d="m44 23h-5l5 5z" fill="#d3843d"/><path d="m38 45v2h-12v-2l2-2v-4a4 4 0 0 1 8 0v4z" fill="#f9bb4b"/><path d="m31 42v2h-4l1-1v-1z" fill="#fcf05a"/><path d="m37 44h-4v-2h3v1z" fill="#fcf05a"/></g></svg>