<?xml version="1.0" encoding="iso-8859-1"?>
<!-- Generator: Adobe Illustrator 19.0.0, SVG Export Plug-In . SVG Version: 6.00 Build 0)  -->
<svg version="1.1" id="Layer_1" xmlns="http://www.w3.org/2000/svg" xmlns:xlink="http://www.w3.org/1999/xlink" x="0px" y="0px"
	 viewBox="0 0 495 495" style="enable-background:new 0 0 495 495;" xml:space="preserve">
<g>
	<path style="fill:#FFA733;" d="M249.581,130.222c6.929,0,13.631,0.971,20,2.749V55.498c-6.545-0.873-13.22-1.332-20-1.332
		s-13.455,0.458-20,1.332v77.473C235.95,131.193,242.652,130.222,249.581,130.222z"/>
	<path style="fill:#FFA733;" d="M269.581,15.214V0h-40v15.214c6.575-0.688,13.246-1.048,20-1.048S263.006,14.525,269.581,15.214z"/>
	<path style="fill:#FFA733;" d="M197.477,151.543l-67.063-38.719c-8.134,10.523-14.906,22.148-20.052,34.61l67.065,38.72
		C180.862,172.808,187.922,160.907,197.477,151.543z"/>
	<path style="fill:#FFA733;" d="M82.29,85.039l-20,34.641l13.192,7.617c5.48-12.274,12.223-23.862,20.058-34.607L82.29,85.039z"/>
	<path style="fill:#FFA733;" d="M62.29,289.758l20,34.641l13.251-7.65c-7.836-10.745-14.579-22.333-20.058-34.607L62.29,289.758z"/>
	<path style="fill:#FFA733;" d="M177.427,223.283l-67.065,38.72c5.147,12.462,11.919,24.087,20.052,34.61l67.063-38.719
		C187.922,248.53,180.862,236.629,177.427,223.283z"/>
	<path style="fill:#FFA733;" d="M229.581,394.224v15.214h40v-15.214c-6.575,0.688-13.246,1.048-20,1.048
		S236.156,394.912,229.581,394.224z"/>
	<path style="fill:#FFA733;" d="M416.873,324.398l20-34.641l-13.192-7.617c-5.48,12.274-12.223,23.862-20.058,34.607
		L416.873,324.398z"/>
	<path style="fill:#FFA733;" d="M301.684,257.895l67.063,38.719c8.134-10.523,14.906-22.148,20.052-34.61l-67.065-38.72
		C318.3,236.629,311.24,248.53,301.684,257.895z"/>
	<path style="fill:#FFA733;" d="M436.873,119.68l-20-34.641l-13.251,7.65c7.836,10.745,14.579,22.333,20.058,34.607L436.873,119.68z
		"/>
	<path style="fill:#FFA733;" d="M321.736,186.154l67.065-38.72c-5.147-12.462-11.919-24.087-20.052-34.61l-67.063,38.719
		C311.24,160.907,318.3,172.808,321.736,186.154z"/>
	<path style="fill:#FFC477;" d="M130.414,296.613c-8.134-10.523-14.906-22.148-20.052-34.61
		c-7.297-17.668-11.334-37.012-11.334-57.284s4.037-39.616,11.334-57.284c5.147-12.462,11.919-24.087,20.052-34.61
		c23.7-30.663,58.946-51.964,99.167-57.327c6.545-0.873,13.22-1.332,20-1.332s13.455,0.458,20,1.332
		c40.221,5.362,75.466,26.664,99.167,57.327c8.134,10.523,14.906,22.148,20.052,34.61c7.297,17.668,11.334,37.012,11.334,57.284
		s-4.037,39.616-11.334,57.284c-5.147,12.462-11.919,24.087-20.052,34.61c-13.231,17.119-30.061,31.317-49.347,41.456l13.779,37.856
		c28.026-13.74,52.2-34.162,70.443-59.177c7.836-10.745,14.579-22.333,20.058-34.607c10.567-23.67,16.454-49.871,16.454-77.422
		s-5.886-53.752-16.454-77.422c-5.48-12.274-12.223-23.862-20.058-34.607c-30.977-42.477-79.062-71.714-134.041-77.476
		c-6.575-0.688-13.246-1.048-20-1.048s-13.425,0.359-20,1.048C174.603,20.975,126.517,50.213,95.54,92.689
		c-7.836,10.745-14.579,22.333-20.058,34.607c-10.567,23.67-16.454,49.871-16.454,77.422s5.886,53.752,16.454,77.422
		c5.48,12.274,12.223,23.862,20.058,34.607c18.243,25.015,42.417,45.437,70.443,59.177l13.779-37.856
		C160.475,327.93,143.646,313.732,130.414,296.613z"/>
	<path style="fill:#FFC477;" d="M249.581,395.271c6.754,0,13.425-0.359,20-1.048c8.869-0.93,17.555-2.476,26.022-4.584
		l-13.778-37.856c-10.392,2.277-21.178,3.488-32.244,3.488c-11.065,0-21.851-1.211-32.243-3.487l-13.778,37.855
		c8.467,2.108,17.153,3.654,26.022,4.584C236.156,394.912,242.827,395.271,249.581,395.271z"/>
	<path style="fill:#96C8EF;" d="M203.559,389.64l13.778-37.855l26.502-72.813c-13.947-1.069-26.825-5.989-37.579-13.706
		l-26.498,72.803l-13.779,37.856L137.202,455h42.568L203.559,389.64z"/>
	<path style="fill:#96C8EF;" d="M292.902,265.266c3.114-2.234,6.051-4.696,8.782-7.372c9.555-9.364,16.615-21.265,20.051-34.611
		c1.528-5.937,2.342-12.157,2.342-18.564s-0.814-12.628-2.342-18.564c-3.436-13.346-10.496-25.247-20.051-34.611
		c-8.848-8.672-19.843-15.149-32.104-18.572c-6.369-1.778-13.071-2.749-20-2.749v148.993c1.934,0,3.845-0.098,5.742-0.243
		l26.501,72.812l13.778,37.856L319.392,455h42.568l-28.781-79.075l-13.779-37.856L292.902,265.266z"/>
	<rect x="20" y="455" style="fill:#FF5023;" width="455" height="40"/>
	<path style="fill:#B3D8F4;" d="M249.581,130.222c-6.929,0-13.631,0.971-20,2.749c-12.261,3.423-23.256,9.9-32.104,18.572
		c-9.555,9.364-16.615,21.265-20.051,34.611c-1.528,5.937-2.342,12.157-2.342,18.564s0.814,12.628,2.342,18.564
		c3.436,13.346,10.496,25.247,20.051,34.611c2.731,2.676,5.669,5.138,8.782,7.372c10.754,7.716,23.632,12.636,37.579,13.706
		c1.897,0.146,3.808,0.243,5.742,0.243V130.222z"/>
</g>
<g>
</g>
<g>
</g>
<g>
</g>
<g>
</g>
<g>
</g>
<g>
</g>
<g>
</g>
<g>
</g>
<g>
</g>
<g>
</g>
<g>
</g>
<g>
</g>
<g>
</g>
<g>
</g>
<g>
</g>
</svg>
