<?xml version="1.0" encoding="iso-8859-1"?>
<!-- Generator: Adobe Illustrator 19.0.0, SVG Export Plug-In . SVG Version: 6.00 Build 0)  -->
<svg version="1.1" id="Layer_1" xmlns="http://www.w3.org/2000/svg" xmlns:xlink="http://www.w3.org/1999/xlink" x="0px" y="0px"
	 viewBox="0 0 496 496" style="enable-background:new 0 0 496 496;" xml:space="preserve">
<polygon style="fill:#03605B;" points="468,404 448,424.8 436.8,413.6 424.8,425.6 413.6,425.6 405.6,434.4 322.4,434.4 
	305.6,417.6 292,417.6 284.8,409.6 279.2,409.6 264,394.4 251.2,406.4 248.8,404 248.8,401.6 248,403.2 247.2,401.6 247.2,404 
	244.8,406.4 232,394.4 216.8,409.6 211.2,409.6 204,417.6 190.4,417.6 173.6,434.4 90.4,434.4 82.4,425.6 71.2,425.6 59.2,413.6 
	48,424.8 28,404 0,432 0,448.8 0,496 247.2,496 248.8,496 496,496 496,448.8 496,432 "/>
<path style="fill:#F2A50A;" d="M300,356c0,16,23.2,109.6,7.2,109.6H188.8c-16,0,7.2-93.6,7.2-109.6l-44-124
	c0-16,12.8-28.8,28.8-28.8h133.6c16,0,28.8,12.8,28.8,28.8L300,356z"/>
<path style="fill:#EF980C;" d="M315.2,203.2c16,0,28.8,12.8,28.8,28.8l-44,124c0,16,23.2,109.6,7.2,109.6H188.8
	c-16,0,7.2-93.6,7.2-109.6"/>
<path style="fill:#EF8E0C;" d="M344,232l-44,124c0,16,23.2,109.6,7.2,109.6H188.8c-16,0,7.2-93.6,7.2-109.6"/>
<path style="fill:#AF083F;" d="M412.8,480c0,8.8-7.2,16-16,16H99.2c-8.8,0-16-7.2-16-16v-21.6c0-8.8,7.2-16,16-16h297.6
	c8.8,0,16,7.2,16,16V480z"/>
<path style="fill:#C60047;" d="M83.2,458.4c0-8.8,7.2-16,16-16h297.6c8.8,0,16,7.2,16,16"/>
<path style="fill:#F2A50A;" d="M277.6,265.6c0,9.6-13.6,18.4-24,18.4h-11.2c-9.6,0-24-8-24-18.4l5.6-86.4c0-9.6,8-18.4,18.4-18.4
	h11.2c10.4,0,18.4,8,18.4,18.4L277.6,265.6z"/>
<path style="fill:#EF8E0C;" d="M224,179.2c0-9.6,8-18.4,18.4-18.4h11.2c10.4,0,18.4,8,18.4,18.4l5.6,86.4c0,9.6-13.6,18.4-24,18.4"
	/>
<g>
	<path style="fill:#F2A50A;" d="M294.4,106.4c0.8-0.8,1.6-2.4,1.6-4c0-4-3.2-7.2-7.2-7.2h-3.2c0-4-1.6-8-4.8-11.2L250.4,4.8
		c-6.4-6.4-1.6-6.4-8,0L212,84c-3.2,3.2-4.8,7.2-4.8,11.2c-4,0-6.4,3.2-6.4,7.2c0,1.6,0.8,2.4,1.6,4c-4,1.6-6.4,5.6-6.4,10.4v24.8
		c0,6.4,4.8,11.2,10.4,11.2c8,20,23.2,39.2,41.6,39.2s33.6-19.2,41.6-39.2c5.6,0,10.4-5.6,10.4-11.2v-24.8
		C300.8,112,297.6,108.8,294.4,106.4z"/>
</g>
<path style="fill:#EF980C;" d="M248,192c18.4,0,33.6-19.2,41.6-39.2c5.6,0,10.4-5.6,10.4-11.2v-24.8c0-4.8-2.4-8-6.4-10.4
	c0.8-0.8,1.6-2.4,1.6-4c0-4-3.2-7.2-7.2-7.2h-3.2c0-4-1.6-8-4.8-11.2L249.6,4.8c-6.4-6.4-1.6-6.4-8,0"/>
<path style="fill:#F7B90D;" d="M172.8,464.8c2.4,19.2,162.4,19.2,181.6,16.8c19.2-2.4,33.6-19.2,32-39.2
	c-2.4-19.2-19.2-33.6-39.2-32C327.2,413.6,170.4,445.6,172.8,464.8z"/>
<path style="fill:#F2A50A;" d="M172.8,464.8c2.4,19.2,162.4,19.2,181.6,16.8c19.2-2.4,33.6-19.2,32-39.2"/>
<path style="fill:#FFDB06;" d="M323.2,464.8c-2.4,19.2-162.4,19.2-181.6,16.8c-19.2-2.4-33.6-19.2-32-39.2
	c2.4-19.2,19.2-33.6,39.2-32C168.8,413.6,325.6,445.6,323.2,464.8z"/>
<path style="fill:#F9CB0B;" d="M323.2,464.8c-2.4,19.2-162.4,19.2-181.6,16.8c-19.2-2.4-33.6-19.2-32-39.2"/>
<path style="fill:#F7B90D;" d="M165.6,206.4c11.2,0,20,8.8,20,20v88c0,11.2-8.8,20-20,20l0,0c-11.2,0-20-8.8-20-20v-88
	C144.8,215.2,154.4,206.4,165.6,206.4L165.6,206.4z"/>
<path style="fill:#F2A50A;" d="M165.6,206.4L165.6,206.4c11.2,0,20,8.8,20,20v88c0,11.2-8.8,20-20,20l0,0c-11.2,0-20-8.8-20-20"/>
<path style="fill:#F9CB0B;" d="M157.6,297.6c10.4-4,94.4-30.4,99.2-20s-73.6,52.8-83.2,56.8s-21.6-0.8-26.4-10.4
	S148,302.4,157.6,297.6z"/>
<path style="fill:#F7B90D;" d="M256.8,277.6c4,10.4-73.6,52.8-83.2,56.8s-21.6-0.8-26.4-10.4"/>
<path style="fill:#F2A50A;" d="M330.4,206.4c-11.2,0-20,8.8-20,20v88c0,11.2,8.8,20,20,20l0,0c11.2,0,20-8.8,20-20v-88
	C351.2,215.2,341.6,206.4,330.4,206.4L330.4,206.4z"/>
<path style="fill:#EF980C;" d="M330.4,206.4L330.4,206.4c-11.2,0-20,8.8-20,20v88c0,11.2,8.8,20,20,20l0,0c11.2,0,20-8.8,20-20"/>
<path style="fill:#F9CB0B;" d="M338.4,297.6c-10.4-4-94.4-30.4-99.2-20c-4,10.4,73.6,52.8,83.2,56.8c10.4,4,21.6-0.8,26.4-10.4
	S348,302.4,338.4,297.6z"/>
<path style="fill:#F7B90D;" d="M239.2,277.6c-4,10.4,73.6,52.8,83.2,56.8c10.4,4,21.6-0.8,26.4-10.4"/>
<path style="fill:#F9CB0B;" d="M268.8,274.4c0,12-9.6,4.8-20.8,4.8s-20.8,7.2-20.8-4.8s9.6-56.8,20.8-56.8S268.8,263.2,268.8,274.4z
	"/>
<g>
	<circle style="fill:#F7B90D;" cx="201.6" cy="163.2" r="7.2"/>
	<circle style="fill:#F7B90D;" cx="294.4" cy="163.2" r="7.2"/>
</g>
<path style="fill:#8E0939;" d="M491.2,488c0,4.8-4,8-8,8H12.8c-4.8,0-8-4-8-8l0,0c0-4.8,4-8,8-8h469.6
	C487.2,479.2,491.2,483.2,491.2,488L491.2,488z"/>
<g>
	<circle style="fill:#F7B90D;" cx="246.4" cy="99.2" r="6.4"/>
	<circle style="fill:#F7B90D;" cx="246.4" cy="42.4" r="2.4"/>
	<circle style="fill:#F7B90D;" cx="246.4" cy="60.8" r="2.4"/>
	<circle style="fill:#F7B90D;" cx="246.4" cy="80" r="2.4"/>
</g>
<g>
</g>
<g>
</g>
<g>
</g>
<g>
</g>
<g>
</g>
<g>
</g>
<g>
</g>
<g>
</g>
<g>
</g>
<g>
</g>
<g>
</g>
<g>
</g>
<g>
</g>
<g>
</g>
<g>
</g>
</svg>
