<?xml version="1.0"?>
<svg xmlns="http://www.w3.org/2000/svg" xmlns:xlink="http://www.w3.org/1999/xlink" version="1.1" id="Capa_1" x="0px" y="0px" viewBox="0 0 512 512" style="enable-background:new 0 0 512 512;" xml:space="preserve" width="512px" height="512px"><g transform="matrix(-1 0 0 1 512 0)"><path style="fill:#DF9D27;" d="M308.608,362.32L192.336,480.032H512L395.728,362.32C371.664,337.968,332.672,337.968,308.608,362.32  z" data-original="#DF9D27"/><path style="fill:#E8AF2A;" d="M145.344,332.88L0,480.032h399.6L254.256,332.896C224.176,302.448,175.424,302.448,145.344,332.88z" data-original="#E8AF2A"/><path style="fill:#7FB241;" d="M108.112,297.504c-6.528,0-11.824,5.296-11.824,11.824v22.16H77.232v-53.616  c0-8.112-6.576-14.688-14.688-14.688s-14.688,6.576-14.688,14.688v102.704H27.984V358.4c0-6.528-5.296-11.824-11.824-11.824  S4.336,351.872,4.336,358.4v33.984c0,6.528,5.296,11.824,11.824,11.824h31.68v70.368h29.392v-119.44h30.88  c6.528,0,11.824-5.296,11.824-11.824v-33.984C119.936,302.8,114.64,297.504,108.112,297.504z" data-original="#7FB241"/><path style="fill:#F3C432;" d="M512,500.32v-68.976c-170.672-31.808-341.328,57.152-512,28.528v40.448H512z" data-original="#F3C432" class=""/><g>
	<path style="fill:#7FB241;" d="M495.328,381.328h-17.952c-2.576,0-4.656-2.08-4.656-4.656c0-2.576,2.08-4.656,4.656-4.656h13.296   v-8.736c0-2.576,2.08-4.656,4.656-4.656s4.656,2.08,4.656,4.656v13.392C499.984,379.248,497.904,381.328,495.328,381.328z" data-original="#7FB241"/>
	<path style="fill:#7FB241;" d="M477.376,400.672h-18.272c-2.576,0-4.656-2.08-4.656-4.656v-13.392c0-2.576,2.08-4.656,4.656-4.656   c2.576,0,4.656,2.08,4.656,4.656v8.736h13.616c2.576,0,4.656,2.08,4.656,4.656S479.952,400.672,477.376,400.672z" data-original="#7FB241"/>
	<path style="fill:#7FB241;" d="M483.168,444.992V350.88c0-3.2-2.592-5.792-5.792-5.792c-3.2,0-5.792,2.592-5.792,5.792v94.096   h11.584V444.992z" data-original="#7FB241"/>
</g><circle style="fill:#FFF100" cx="107.456" cy="77.536" r="65.856" data-original="#FFF100" class="active-path" data-old_color="#FFF100"/></g> </svg>
