<?xml version="1.0" encoding="iso-8859-1"?>
<!-- Generator: Adobe Illustrator 21.0.0, SVG Export Plug-In . SVG Version: 6.00 Build 0)  -->
<svg xmlns="http://www.w3.org/2000/svg" xmlns:xlink="http://www.w3.org/1999/xlink" version="1.1" id="Capa_1" x="0px" y="0px" viewBox="0 0 512 512" style="enable-background:new 0 0 512 512;" xml:space="preserve" width="512" height="512">
<g>
	<rect x="337.869" y="110.571" style="fill:#C4AC8E;" width="123.622" height="329.021"/>
	<rect x="430.585" y="110.571" style="fill:#B59F83;" width="30.905" height="329.021"/>
	<g>
		<path style="fill:#C4AC8E;" d="M337.87,245.167v16.51H28.88v-16.51l31.509-46.065c0.746-1.09,1.981-1.742,3.3-1.742h239.363    c1.32,0,2.554,0.652,3.3,1.742L337.87,245.167z"/>
	</g>
	<path style="fill:#B59F83;" d="M303.054,197.358h-28.797l32.706,47.812h30.905l-31.515-46.07   C305.608,198.01,304.373,197.358,303.054,197.358z"/>
	<rect x="28.876" y="245.17" style="fill:#857460;" width="308.993" height="190.812"/>
	<rect x="306.963" y="245.17" style="fill:#7A6B58;" width="30.905" height="190.812"/>
	<path style="fill:#B59F83;" d="M348.17,104.152h-30.905V63.002c0-2.21,1.792-4.002,4.002-4.002h22.901   c2.21,0,4.002,1.792,4.002,4.002V104.152z"/>
	<path style="fill:#FFD54F;" d="M399.68,224.542L399.68,224.542c-8.534,0-15.453-6.918-15.453-15.453v-22.728   c0-8.534,6.918-15.453,15.453-15.453h0c8.534,0,15.453,6.918,15.453,15.453v22.728C415.132,217.623,408.214,224.542,399.68,224.542   z"/>
	<path style="fill:#FFD54F;" d="M399.68,319.432L399.68,319.432c-8.534,0-15.453-6.918-15.453-15.453v-22.728   c0-8.534,6.918-15.453,15.453-15.453h0c8.534,0,15.453,6.918,15.453,15.453v22.728C415.132,312.514,408.214,319.432,399.68,319.432   z"/>
	<path style="fill:#B59F83;" d="M415.132,104.152h-30.905V63.002c0-2.21,1.792-4.002,4.002-4.002h22.901   c2.21,0,4.002,1.792,4.002,4.002V104.152z"/>
	<path style="fill:#B59F83;" d="M482.094,104.152h-30.905V63.002c0-2.21,1.792-4.002,4.002-4.002h22.901   c2.21,0,4.002,1.792,4.002,4.002V104.152z"/>
	<path style="fill:#FFD54F;" d="M290.746,347.28h-22.659c-2.277,0-4.123-1.846-4.123-4.123V286.94c0-2.277,1.846-4.123,4.123-4.123   h22.659c2.277,0,4.123,1.846,4.123,4.123v56.217C294.87,345.434,293.023,347.28,290.746,347.28z"/>
	<path style="fill:#FFD54F;" d="M226.717,347.28h-22.659c-2.277,0-4.123-1.846-4.123-4.123V286.94c0-2.277,1.846-4.123,4.123-4.123   h22.659c2.277,0,4.123,1.846,4.123,4.123v56.217C230.84,345.434,228.994,347.28,226.717,347.28z"/>
	<path style="fill:#FFD54F;" d="M162.687,347.28h-22.659c-2.277,0-4.123-1.846-4.123-4.123V286.94c0-2.277,1.846-4.123,4.123-4.123   h22.659c2.277,0,4.123,1.846,4.123,4.123v56.217C166.81,345.434,164.964,347.28,162.687,347.28z"/>
	<path style="fill:#FFD54F;" d="M98.657,347.28H75.998c-2.277,0-4.123-1.846-4.123-4.123V286.94c0-2.277,1.846-4.123,4.123-4.123   h22.659c2.277,0,4.123,1.846,4.123,4.123v56.217C102.78,345.434,100.934,347.28,98.657,347.28z"/>
	<path style="fill:#4CAF50;" d="M507.877,453H4.123C1.846,453,0,451.154,0,448.877v-25.79c0-2.277,1.846-4.123,4.123-4.123h503.754   c2.277,0,4.123,1.846,4.123,4.123v25.79C512,451.154,510.154,453,507.877,453z"/>
	<path style="fill:#43A047;" d="M507.879,418.963h-30.905c2.276,0,4.121,1.847,4.121,4.126v25.785c0,2.279-1.845,4.126-4.121,4.126   h30.905c2.276,0,4.121-1.847,4.121-4.126v-25.785C512,420.81,510.155,418.963,507.879,418.963z"/>
	<path style="fill:#857460;" d="M478.092,131.199H321.267c-2.21,0-4.002-1.792-4.002-4.002V89.942h164.829v37.254   C482.094,129.407,480.302,131.199,478.092,131.199z"/>
	<path style="fill:#7A6B58;" d="M451.189,89.942v41.257h26.905c2.209,0,4-1.793,4-4.005V89.942H451.189z"/>
</g>















</svg>
