<?xml version="1.0"?>
<svg xmlns="http://www.w3.org/2000/svg" viewBox="0 0 64 64" width="512" height="512"><g id="flat"><rect x="3" y="29" width="58" height="32" style="fill:#32b1cc"/><rect x="28" y="3" width="16" height="14" style="fill:#ad6327"/><rect x="16" y="5" width="12" height="12" style="fill:#d3843d"/><rect x="3" y="17" width="58" height="12" style="fill:#ffd782"/><rect x="28" y="7" width="12" height="10" style="fill:#8b3123"/><polygon points="12 11 12 13 10 13 10 17 16 17 16 11 12 11" style="fill:#8b3123"/><rect x="20" y="11" width="4" height="6" style="fill:#ad6327"/><rect x="32" y="13" width="4" height="4" style="fill:#e97131"/><rect x="19" y="5" width="2" height="3" style="fill:#ffd782"/><rect x="23" y="5" width="2" height="3" style="fill:#ffd782"/><polygon points="58.372 9.929 57.628 8.071 54.795 9.205 55.929 6.371 54.071 5.629 53 8.308 51.929 5.629 50.071 6.371 51.205 9.205 48.372 8.071 47.628 9.929 52 11.677 52 17 54 17 54 11.677 58.372 9.929" style="fill:#dd3e46"/><rect x="3" y="20" width="10" height="2" style="fill:#e97131"/><rect x="15" y="20" width="2" height="2" style="fill:#e97131"/><rect x="56" y="20" width="2" height="2" style="fill:#e97131"/><rect x="24" y="20" width="10" height="2" style="fill:#e97131"/><rect x="17" y="24" width="6" height="2" style="fill:#e97131"/><path d="M20,38a4.862,4.862,0,0,1-2.447-.6A2.89,2.89,0,0,0,16,37a2.89,2.89,0,0,0-1.553.4A4.862,4.862,0,0,1,12,38a4.872,4.872,0,0,1-2.447-.6A2.893,2.893,0,0,0,8,37V35a4.872,4.872,0,0,1,2.447.6A2.893,2.893,0,0,0,12,36a2.89,2.89,0,0,0,1.553-.4A4.862,4.862,0,0,1,16,35a4.862,4.862,0,0,1,2.447.6A2.89,2.89,0,0,0,20,36Z" style="fill:#cdeef6"/><path d="M28,43a4.862,4.862,0,0,1-2.447-.6,3.25,3.25,0,0,0-3.106,0A4.862,4.862,0,0,1,20,43V41a2.89,2.89,0,0,0,1.553-.4,5.251,5.251,0,0,1,4.894,0,3.25,3.25,0,0,0,3.106,0A4.872,4.872,0,0,1,32,40v2a2.893,2.893,0,0,0-1.553.4A4.872,4.872,0,0,1,28,43Z" style="fill:#cdeef6"/><path d="M49,50a4.862,4.862,0,0,1-2.447-.6,3.25,3.25,0,0,0-3.106,0A4.862,4.862,0,0,1,41,50V48a2.89,2.89,0,0,0,1.553-.4,5.251,5.251,0,0,1,4.894,0,3.25,3.25,0,0,0,3.106,0A4.872,4.872,0,0,1,53,47v2a2.893,2.893,0,0,0-1.553.4A4.872,4.872,0,0,1,49,50Z" style="fill:#cdeef6"/><path d="M39,56a4.862,4.862,0,0,1-2.447-.6,3.25,3.25,0,0,0-3.106,0,5.251,5.251,0,0,1-4.894,0A2.893,2.893,0,0,0,27,55V53a4.872,4.872,0,0,1,2.447.6,3.25,3.25,0,0,0,3.106,0,5.251,5.251,0,0,1,4.894,0A2.89,2.89,0,0,0,39,54Z" style="fill:#cdeef6"/><path d="M19,52a4.862,4.862,0,0,1-2.447-.6A2.89,2.89,0,0,0,15,51a2.89,2.89,0,0,0-1.553.4A4.862,4.862,0,0,1,11,52V50a2.89,2.89,0,0,0,1.553-.4A4.862,4.862,0,0,1,15,49a4.862,4.862,0,0,1,2.447.6,3.25,3.25,0,0,0,3.106,0A4.872,4.872,0,0,1,23,49v2a2.893,2.893,0,0,0-1.553.4A4.872,4.872,0,0,1,19,52Z" style="fill:#cdeef6"/><path d="M51,41H39c-1,0-1.661-1.322-2-2l-1-2H54l-1,2C52.661,39.678,52,41,51,41Z" style="fill:#8b3123"/><rect x="44" y="33" width="2" height="4" style="fill:#442155"/><rect x="37" y="23" width="16" height="10" style="fill:#d3843d"/><rect x="44" y="20" width="2" height="3" style="fill:#442155"/><polygon points="37 23 41 27 45 23 49 27 53 23 37 23" style="fill:#dd3e46"/></g></svg>
