<?xml version="1.0" encoding="iso-8859-1"?>
<!-- Generator: Adobe Illustrator 19.0.0, SVG Export Plug-In . SVG Version: 6.00 Build 0)  -->
<svg xmlns="http://www.w3.org/2000/svg" xmlns:xlink="http://www.w3.org/1999/xlink" version="1.1" id="Layer_1" x="0px" y="0px" viewBox="0 0 439.48 439.48" style="enable-background:new 0 0 439.48 439.48;" xml:space="preserve" width="512" height="512">
<g>
	<polygon style="fill:#EAB932;" points="373.9,290.73 373.9,391.73 290.9,391.73 290.9,290.73 319.357,290.73 345.443,290.73  "/>
	<path style="fill:#FFD039;" d="M204.07,183.75v138.48H102.03H0v42.83c28.2-28.2,73.83-28.2,102.03,0c28.2-28.2,73.84-28.2,102.04,0   v26.67h35.33V259.06h19.33v-75.31H204.07z"/>
	<rect x="204.07" y="190.36" style="fill:#EAB932;" width="54.66" height="22.89"/>
	<path style="fill:#3B9DFF;" d="M415.06,147.86c2.06,2.05,3.33,4.89,3.33,8.03c0,6.27-5.09,11.36-11.36,11.36h-39.16   c-3.14,0-5.98-1.27-8.03-3.33c-2.06-2.05-3.33-4.89-3.33-8.03c0-6.27,5.08-11.36,11.36-11.36h-42.85c-3.14,0-5.98-1.27-8.03-3.33   c-2.06-2.05-3.33-4.89-3.33-8.03c0-6.27,5.09-11.36,11.36-11.36h65.57c3.13,0,5.97,1.27,8.03,3.33c2.06,2.05,3.33,4.89,3.33,8.03   c0,6.27-5.09,11.36-11.36,11.36h16.44C410.16,144.53,413,145.8,415.06,147.86z"/>
	<path style="fill:#3B9DFF;" d="M159.71,89.19c2.79,2.78,4.51,6.62,4.51,10.87c0,8.49-6.89,15.38-15.38,15.38H60.1   c-4.24,0-8.09-1.72-10.87-4.51c-2.78-2.78-4.5-6.62-4.5-10.87c0-8.49,6.88-15.37,15.37-15.37H37.85c-4.25,0-8.09-1.72-10.87-4.5   c-2.79-2.78-4.51-6.62-4.51-10.87c0-8.5,6.89-15.38,15.38-15.38h53c4.25,0,8.09,1.72,10.87,4.5c2.79,2.79,4.51,6.63,4.51,10.88   c0,8.49-6.89,15.37-15.38,15.37h57.99C153.08,84.69,156.93,86.41,159.71,89.19z"/>
	<polygon style="fill:#CCCCCC;" points="231.4,21.73 247.54,75.24 229.74,84.75 215.26,75.24  "/>
	<polygon style="fill:#FFD039;" points="247.54,75.24 247.54,102.08 231.24,108.75 215.26,102.08 215.26,75.24  "/>
	<polygon style="fill:#CCCCCC;" points="247.54,102.08 261.29,126.06 230.74,132.75 201.51,126.06 215.26,102.08  "/>
	<path style="fill:#FFD039;" d="M265.96,130.73v54.96c0,2.579-2.091,4.67-4.67,4.67h-2.56h-54.66h-2.56   c-2.579,0-4.67-2.091-4.67-4.67v-54.96c0-2.579,2.091-4.67,4.67-4.67h0h59.78h0C263.869,126.06,265.96,128.151,265.96,130.73z"/>
	<polygon style="fill:#FFD039;" points="425.4,259.06 425.4,391.73 367.4,391.73 367.4,290.73 367.4,259.06 386.73,259.06    406.06,259.06  "/>
	<polygon style="fill:#EAB932;" points="258.73,208.56 258.73,259.06 253.24,385.75 239.4,391.73 227.9,391.73 227.9,208.56  "/>
	<polygon style="fill:#FFD039;" points="297.4,290.73 297.4,391.73 239.4,391.73 239.4,259.06 258.73,259.06 278.06,259.06    297.4,259.06  "/>
	<path style="fill:#EAB932;" d="M107.034,401.563h-10v-89c0-2.761,2.239-5,5-5h0c2.761,0,5,2.239,5,5V401.563z"/>
	<path style="fill:#FFD039;" d="M243.9,266.563c-2.485,0-4.5-2.015-4.5-4.5v-32c0-2.485,2.015-4.5,4.5-4.5s4.5,2.015,4.5,4.5v32   C248.4,264.549,246.385,266.563,243.9,266.563z"/>
	<path style="fill:#FFD039;" d="M292.9,266.563c-2.485,0-4.5-2.015-4.5-4.5v-32c0-2.485,2.015-4.5,4.5-4.5s4.5,2.015,4.5,4.5v32   C297.4,264.549,295.385,266.563,292.9,266.563z"/>
	<path style="fill:#666666;" d="M258.731,310.992c-2.485,0-4.5-2.015-4.5-4.5v-24.428c0-2.485,2.015-4.5,4.5-4.5s4.5,2.015,4.5,4.5   v24.428C263.231,308.977,261.216,310.992,258.731,310.992z"/>
	<path style="fill:#666666;" d="M278.064,310.992c-2.485,0-4.5-2.015-4.5-4.5v-24.428c0-2.485,2.015-4.5,4.5-4.5s4.5,2.015,4.5,4.5   v24.428C282.564,308.977,280.549,310.992,278.064,310.992z"/>
	<path style="fill:#666666;" d="M258.731,367.563c-2.485,0-4.5-2.015-4.5-4.5v-24.429c0-2.485,2.015-4.5,4.5-4.5s4.5,2.015,4.5,4.5   v24.429C263.231,365.549,261.216,367.563,258.731,367.563z"/>
	<path style="fill:#666666;" d="M278.064,367.563c-2.485,0-4.5-2.015-4.5-4.5v-24.429c0-2.485,2.015-4.5,4.5-4.5s4.5,2.015,4.5,4.5   v24.429C282.564,365.549,280.549,367.563,278.064,367.563z"/>
	<path style="fill:#FFD039;" d="M276.567,266.563c-2.485,0-4.5-2.015-4.5-4.5v-19c0-2.485,2.015-4.5,4.5-4.5s4.5,2.015,4.5,4.5v19   C281.067,264.549,279.052,266.563,276.567,266.563z"/>
	<path style="fill:#FFD039;" d="M260.233,266.563c-2.485,0-4.5-2.015-4.5-4.5v-19c0-2.485,2.015-4.5,4.5-4.5s4.5,2.015,4.5,4.5v19   C264.733,264.549,262.719,266.563,260.233,266.563z"/>
	<g>
		<path style="fill:#FFD039;" d="M371.9,266.563c-2.485,0-4.5-2.015-4.5-4.5v-32c0-2.485,2.015-4.5,4.5-4.5s4.5,2.015,4.5,4.5v32    C376.4,264.549,374.385,266.563,371.9,266.563z"/>
		<path style="fill:#FFD039;" d="M420.9,266.563c-2.485,0-4.5-2.015-4.5-4.5v-32c0-2.485,2.015-4.5,4.5-4.5s4.5,2.015,4.5,4.5v32    C425.4,264.549,423.385,266.563,420.9,266.563z"/>
		<path style="fill:#FFD039;" d="M404.567,266.563c-2.485,0-4.5-2.015-4.5-4.5v-19c0-2.485,2.015-4.5,4.5-4.5s4.5,2.015,4.5,4.5v19    C409.067,264.549,407.052,266.563,404.567,266.563z"/>
		<path style="fill:#FFD039;" d="M388.233,266.563c-2.485,0-4.5-2.015-4.5-4.5v-19c0-2.485,2.015-4.5,4.5-4.5s4.5,2.015,4.5,4.5v19    C392.733,264.549,390.719,266.563,388.233,266.563z"/>
	</g>
	<path style="fill:#666666;" d="M386.731,310.992c-2.485,0-4.5-2.015-4.5-4.5v-24.428c0-2.485,2.015-4.5,4.5-4.5s4.5,2.015,4.5,4.5   v24.428C391.231,308.977,389.216,310.992,386.731,310.992z"/>
	<path style="fill:#666666;" d="M406.064,310.992c-2.485,0-4.5-2.015-4.5-4.5v-24.428c0-2.485,2.015-4.5,4.5-4.5s4.5,2.015,4.5,4.5   v24.428C410.564,308.977,408.549,310.992,406.064,310.992z"/>
	<path style="fill:#666666;" d="M386.731,367.563c-2.485,0-4.5-2.015-4.5-4.5v-24.429c0-2.485,2.015-4.5,4.5-4.5s4.5,2.015,4.5,4.5   v24.429C391.231,365.549,389.216,367.563,386.731,367.563z"/>
	<path style="fill:#666666;" d="M406.064,367.563c-2.485,0-4.5-2.015-4.5-4.5v-24.429c0-2.485,2.015-4.5,4.5-4.5s4.5,2.015,4.5,4.5   v24.429C410.564,365.549,408.549,367.563,406.064,367.563z"/>
	<path style="fill:#EAB932;" d="M321.397,297.733c-2.485,0-4.5-2.015-4.5-4.5V275.9c0-2.485,2.015-4.5,4.5-4.5s4.5,2.015,4.5,4.5   v17.333C325.897,295.719,323.883,297.733,321.397,297.733z"/>
	<path style="fill:#EAB932;" d="M343.397,297.733c-2.485,0-4.5-2.015-4.5-4.5V275.9c0-2.485,2.015-4.5,4.5-4.5s4.5,2.015,4.5,4.5   v17.333C347.897,295.719,345.883,297.733,343.397,297.733z"/>
	<path style="fill:#666666;" d="M321.397,369.233c-2.485,0-4.5-2.015-4.5-4.5v-46.667c0-2.485,2.015-4.5,4.5-4.5s4.5,2.015,4.5,4.5   v46.667C325.897,367.219,323.883,369.233,321.397,369.233z"/>
	<path style="fill:#666666;" d="M343.397,369.233c-2.485,0-4.5-2.015-4.5-4.5v-46.667c0-2.485,2.015-4.5,4.5-4.5s4.5,2.015,4.5,4.5   v46.667C347.897,367.219,345.883,369.233,343.397,369.233z"/>
	<circle style="fill:#808080;" cx="231.4" cy="158.21" r="21.35"/>
	<rect x="183.06" y="389.25" style="fill:#CCCCCC;" width="256.42" height="28.5"/>
	<rect x="183.06" y="405.25" style="fill:#B3B3B3;" width="256.42" height="12.5"/>
	<path style="fill:#3B9DFF;" d="M183.06,389.25v28.5H0v-23.5c20.34,0,20.34-10,40.68-10c20.35,0,20.35,10,40.69,10   c20.34,0,20.34-10,40.67-10c20.34,0,20.34,10,40.68,10C172.89,394.25,177.98,391.75,183.06,389.25z"/>
	<rect y="405.25" style="fill:#1E79C4;" width="183.06" height="12.5"/>
</g>















</svg>
