<?xml version="1.0"?>
<svg xmlns="http://www.w3.org/2000/svg" id="Layer_3" enable-background="new 0 0 64 64" height="512px" viewBox="0 0 64 64" width="512px" class=""><g><path d="m2 62v-18h5.789c4.702 0 9.299-1.392 13.211-4 3.912-2.608 8.509-4 13.211-4h27.789v26z" fill="#976947" data-original="#976947" class="active-path" style="fill:#CA9772" data-old_color="#976947"/><path d="m62 62v-22h-10.515c-3.06 0-6.049.685-8.763 1.969l-11.443 8.062c-2.715 1.284-5.704 1.969-8.764 1.969h-2.391c-5.807 0-11.342 2.465-15.227 6.781l-2.897 3.219" fill="#c18e59" data-original="#C18E59" class=""/><ellipse cx="53" cy="48" fill="#78b75b" rx="5" ry="8" data-original="#78B75B" class=""/><circle cx="37" cy="46" fill="#78b75b" r="7" data-original="#78B75B" class=""/><path d="m15 6c-.034 0-.066.009-.1.01-.459-2.287-2.478-4.01-4.9-4.01s-4.441 1.723-4.9 4.01c-.034-.001-.066-.01-.1-.01-1.657 0-3 1.343-3 3s1.343 3 3 3c.841 0 1.598-.348 2.143-.905.811.567 1.793.905 2.857.905s2.046-.338 2.857-.905c.545.557 1.302.905 2.143.905 1.657 0 3-1.343 3-3s-1.343-3-3-3z" fill="#a1cdfb" data-original="#A1CDFB" class=""/><path d="m59 6c-.034 0-.066.009-.1.01-.459-2.287-2.478-4.01-4.9-4.01s-4.441 1.723-4.9 4.01c-.034-.001-.066-.01-.1-.01-1.657 0-3 1.343-3 3s1.343 3 3 3c.841 0 1.598-.348 2.143-.905.811.567 1.793.905 2.857.905s2.046-.338 2.857-.905c.545.557 1.302.905 2.143.905 1.657 0 3-1.343 3-3s-1.343-3-3-3z" fill="#a1cdfb" data-original="#A1CDFB" class=""/><path d="m52.293 47.293c-.188.187-.293.442-.293.707v.586l-1.293-1.293-1.414 1.414 2.707 2.707v10.586h2v-13.586l1.707-1.707-1.414-1.414z" fill="#976947" data-original="#976947" class="active-path" style="fill:#CA9772" data-old_color="#976947"/><path d="m36.293 45.293c-.188.187-.293.442-.293.707v.586l-1.293-1.293-1.414 1.414 2.707 2.707v12.586h2v-15.586l1.707-1.707-1.414-1.414z" fill="#976947" data-original="#976947" class="active-path" style="fill:#CA9772" data-old_color="#976947"/><g fill="#8892a0"><path d="m3 21h2v4h2v-10h-2v4h-2v-4h-2v10h2z" data-original="#8892A0" class="" style="fill:#E3E9ED" data-old_color="#8892A0"/><path d="m9 25h4c.552 0 1-.448 1-1v-8c0-.552-.448-1-1-1h-4c-.552 0-1 .448-1 1v8c0 .552.448 1 1 1zm1-8h2v6h-2z" data-original="#8892A0" class="" style="fill:#E3E9ED" data-old_color="#8892A0"/><path d="m44 25h4c.552 0 1-.448 1-1v-8c0-.552-.448-1-1-1h-4c-.552 0-1 .448-1 1v8c0 .552.448 1 1 1zm1-8h2v6h-2z" data-original="#8892A0" class="" style="fill:#E3E9ED" data-old_color="#8892A0"/><path d="m51 25h4c.552 0 1-.448 1-1v-8c0-.552-.448-1-1-1h-4c-.552 0-1 .448-1 1v8c0 .552.448 1 1 1zm1-8h2v6h-2z" data-original="#8892A0" class="" style="fill:#E3E9ED" data-old_color="#8892A0"/><path d="m60 15h-2c-.552 0-1 .448-1 1v8c0 .552.448 1 1 1h2c1.654 0 3-1.346 3-3v-4c0-1.654-1.346-3-3-3zm1 7c0 .551-.449 1-1 1h-1v-6h1c.551 0 1 .449 1 1z" data-original="#8892A0" class="" style="fill:#E3E9ED" data-old_color="#8892A0"/><path d="m35 25h6c.552 0 1-.448 1-1v-9h-2v8h-1v-8h-2v8h-1v-8h-2v9c0 .552.448 1 1 1z" data-original="#8892A0" class="" style="fill:#E3E9ED" data-old_color="#8892A0"/><path d="m16 25h4v-2h-3v-8h-2v9c0 .552.448 1 1 1z" data-original="#8892A0" class="" style="fill:#E3E9ED" data-old_color="#8892A0"/><path d="m22 25h4v-2h-3v-8h-2v9c0 .552.448 1 1 1z" data-original="#8892A0" class="" style="fill:#E3E9ED" data-old_color="#8892A0"/><path d="m27 25h2v-4.807l1.929-4.821-1.858-.744-1.071 2.68-1.071-2.68-1.858.744 1.929 4.821z" data-original="#8892A0" class="" style="fill:#E3E9ED" data-old_color="#8892A0"/></g><path d="m3 27h2v5h-2z" fill="#4d5d7a" data-original="#4D5D7A" class="" style="fill:#C7EBFF" data-old_color="#4d5d7a"/><path d="m10 27h2v5h-2z" fill="#4d5d7a" data-original="#4D5D7A" class="" style="fill:#C7EBFF" data-old_color="#4d5d7a"/><path d="m17 27h2v5h-2z" fill="#4d5d7a" data-original="#4D5D7A" class="" style="fill:#C7EBFF" data-old_color="#4d5d7a"/><path d="m23 27h2v5h-2z" fill="#4d5d7a" data-original="#4D5D7A" class="" style="fill:#C7EBFF" data-old_color="#4d5d7a"/><path d="m27 27h2v5h-2z" fill="#4d5d7a" data-original="#4D5D7A" class="" style="fill:#C7EBFF" data-old_color="#4d5d7a"/><path d="m37 27h2v5h-2z" fill="#4d5d7a" data-original="#4D5D7A" class="" style="fill:#C7EBFF" data-old_color="#4d5d7a"/><path d="m45 27h2v5h-2z" fill="#4d5d7a" data-original="#4D5D7A" class="" style="fill:#C7EBFF" data-old_color="#4d5d7a"/><path d="m52 27h2v5h-2z" fill="#4d5d7a" data-original="#4D5D7A" class="" style="fill:#C7EBFF" data-old_color="#4d5d7a"/><path d="m59 27h2v5h-2z" fill="#4d5d7a" data-original="#4D5D7A" class="" style="fill:#C7EBFF" data-old_color="#4d5d7a"/><path d="m1 31h62v2h-62z" fill="#976947" data-original="#976947" class="active-path" style="fill:#CA9772" data-old_color="#976947"/></g> </svg>
