<svg height="512" viewBox="0 0 60 60" width="512" xmlns="http://www.w3.org/2000/svg"><g id="008---Red-Square" fill="none"><path id="Shape" d="m40 43.78v5.55h-20v-5.55c0-.6130361.4969639-1.11 1.11-1.11h17.78c.6130361 0 1.11.4969639 1.11 1.11z" fill="#2fa8cc"/><path id="Shape" d="m34.89 36.15c-.0212579 1.1127854-.5383354 2.1579421-1.41 2.85h-7c-.8727885-.6911491-1.3901464-1.7368725-1.41-2.85.04-2.25 4.93-8.15 4.93-8.15s4.89 5.9 4.89 8.15z" fill="#3b97d3"/><g fill="#f0c419"><path id="Shape" d="m30 7c-.5522847 0-1-.44771525-1-1v-5c0-.55228475.4477153-1 1-1s1 .44771525 1 1v5c0 .55228475-.4477153 1-1 1z"/><path id="Shape" d="m32 4h-4c-.5522847 0-1-.44771525-1-1s.4477153-1 1-1h4c.5522847 0 1 .44771525 1 1s-.4477153 1-1 1z"/><path id="Shape" d="m12 23c-.5522847 0-1-.4477153-1-1v-5c0-.5522847.4477153-1 1-1s1 .4477153 1 1v5c0 .5522847-.4477153 1-1 1z"/><path id="Shape" d="m14 20h-4c-.55228475 0-1-.4477153-1-1s.44771525-1 1-1h4c.5522847 0 1 .4477153 1 1s-.4477153 1-1 1z"/><path id="Shape" d="m48 23c-.5522847 0-1-.4477153-1-1v-5c0-.5522847.4477153-1 1-1s1 .4477153 1 1v5c0 .5522847-.4477153 1-1 1z"/><path id="Shape" d="m50 20h-4c-.5522847 0-1-.4477153-1-1s.4477153-1 1-1h4c.5522847 0 1 .4477153 1 1s-.4477153 1-1 1z"/></g><path id="Shape" d="m32.85 15c.7115351-.5663752 1.1332098-1.4207249 1.15-2.33 0-1.84-4-6.67-4-6.67s-4 4.83-4 6.67c.0096587.9109939.432763 1.7682401 1.15 2.33z" fill="#f29c1f"/><rect id="Rectangle-path" fill="#3b97d3" height="4" rx="1" width="6" x="27" y="15"/><path id="Rectangle-path" d="m27 38h6v5h-6z" fill="#802d40"/><path id="Shape" d="m12 49c-.5522847 0-1 .4477153-1 1v9h16v-10z" fill="#c03a2b"/><path id="Shape" d="m22 56v3h-6v-3c0-1.6568542 1.3431458-3 3-3s3 1.3431458 3 3z" fill="#2c2f38"/><path id="Rectangle-path" d="m27 49h6v10h-6z" fill="#802d40"/><path id="Shape" d="m16 32.07c.6481663-.8161265 1.0006657-1.8277996 1-2.87 0-2.65-5-7.2-5-7.2s-5 4.55-5 7.2c-.00066569 1.0422004.35183367 2.0538735 1 2.87z" fill="#24ae5f"/><path id="Rectangle-path" d="m8 32h8v6h-8z" fill="#df4d60"/><path id="Shape" d="m18.62 49h-6.62c-.5522847 0-1 .4477153-1 1v9h-8l3.33-14h11.34z" fill="#df4d60"/><path id="Shape" d="m17.67 45h-11.34l1.67-7h8z" fill="#802d40"/><path id="Shape" d="m12 46c-.5522847 0-1-.4477153-1-1v-3c0-.5522847.4477153-1 1-1s1 .4477153 1 1v3c0 .5522847-.4477153 1-1 1z" fill="#2c2f38"/><path id="Shape" d="m12 39c-.5522847 0-1-.4477153-1-1v-2c0-.5522847.4477153-1 1-1s1 .4477153 1 1v2c0 .5522847-.4477153 1-1 1z" fill="#2c2f38"/><path id="Shape" d="m52 32.07c.6481663-.8161265 1.0006657-1.8277996 1-2.87 0-2.65-5-7.2-5-7.2s-5 4.55-5 7.2c-.0006657 1.0422004.3518337 2.0538735 1 2.87z" fill="#955ba5"/><path id="Rectangle-path" d="m44 32h8v6h-8z" fill="#df4d60"/><path id="Shape" d="m48 49h-15v10h16v-9c0-.5522847-.4477153-1-1-1z" fill="#c03a2b"/><path id="Shape" d="m44 56v3h-6v-3c0-1.6568542 1.3431458-3 3-3s3 1.3431458 3 3z" fill="#2c2f38"/><path id="Shape" d="m49 59v-9c0-.5522847-.4477153-1-1-1h-6.62l.95-4h11.34l3.33 14z" fill="#df4d60"/><path id="Shape" d="m53.67 45h-11.34l1.67-7h8z" fill="#802d40"/><path id="Shape" d="m42.91 42.56-1.53 6.44h-2.38v-5c0-.5522847-.4477153-1-1-1h-5v-5h-.15c.7115351-.5663752 1.1332098-1.4207249 1.15-2.33 0-1.84-4-6.67-4-6.67s-4 4.83-4 6.67c.0096587.9109939.432763 1.7682401 1.15 2.33h-.15v5h-5c-.5522847 0-1 .4477153-1 1v5h-2.38l-1.53-6.44 10.5-23.65h4.82z" fill="#d75e72"/><path id="Shape" d="m48 46c-.5522847 0-1-.4477153-1-1v-3c0-.5522847.4477153-1 1-1s1 .4477153 1 1v3c0 .5522847-.4477153 1-1 1z" fill="#2c2f38"/><path id="Shape" d="m48 39c-.5522847 0-1-.4477153-1-1v-2c0-.5522847.4477153-1 1-1s1 .4477153 1 1v2c0 .5522847-.4477153 1-1 1z" fill="#2c2f38"/><path id="Shape" d="m59 60h-58c-.55228475 0-1-.4477153-1-1s.44771525-1 1-1h58c.5522847 0 1 .4477153 1 1s-.4477153 1-1 1z" fill="#2c2f38"/></g></svg>