<svg height="512pt" viewBox="0 0 512 512" width="512pt" xmlns="http://www.w3.org/2000/svg"><path d="m323.992188 56.5h-135.984376v-52.5c0-2.210938 1.792969-4 4-4h127.984376c2.207031 0 4 1.789062 4 4zm0 0" fill="#e8a774"/><path d="m293.085938 0v56.5h30.90625v-52.5c0-2.210938-1.792969-4-4-4zm0 0" fill="#de9962"/><path d="m343.566406 83.960938v188.539062h-51.511718v-96.855469c0-19.925781-16.152344-36.054687-36.054688-36.054687-19.914062 0-36.054688 16.144531-36.054688 36.054687v96.855469h-51.511718v-188.539062zm0 0" fill="#e8a774"/><path d="m312.660156 83.960938h30.90625v188.539062h-30.90625zm0 0" fill="#de9962"/><path d="m343.566406 83.960938h-175.132812v-42.390626c0-2.761718 2.242187-5 5-5h165.132812c2.761719 0 5 2.238282 5 5zm0 0" fill="#d48b53"/><path d="m312.660156 36.570312v47.390626h30.90625v-42.390626c0-2.761718-2.242187-5-5-5zm0 0" fill="#c7824e"/><path d="m359.019531 76.460938h-206.039062c-4.140625 0-7.5 3.355468-7.5 7.5 0 4.140624 3.359375 7.5 7.5 7.5h206.039062c4.140625 0 7.5-3.359376 7.5-7.5 0-4.144532-3.359375-7.5-7.5-7.5zm0 0" fill="#c7824e"/><path d="m512 252.789062v255.210938c0 .96875-.351562 1.871094-.921875 2.558594-.738281.882812-1.847656 1.441406-3.078125 1.441406h-504c-1.230469 0-2.339844-.558594-3.078125-1.441406-.570313-.6875-.921875-1.589844-.921875-2.558594v-255.210938c0-2.210937 1.789062-4 4-4h504c2.210938 0 4 1.789063 4 4zm0 0" fill="#e8a774"/><path d="m512 248.789062v259.210938c0 .96875-.351562 1.871094-.921875 2.558594l-38.296875-59.847656-.441406-201.921876zm0 0" fill="#de9962"/><path d="m512 512h-508c-1.230469 0-2.339844-.558594-3.078125-1.441406l167.507813-261.769532h175.140624l167.507813 261.769532zm0 0" fill="#78909c"/><path d="m511.078125 510.558594c-.738281.882812-1.847656 1.441406-3.078125 1.441406h-51.109375c-1.03125 0-144.230469-263.210938-144.230469-263.210938h30.910156zm0 0" fill="#6c838c"/><g fill="#78909c"><path d="m97.351562 208.324219c-4.140624 0-7.5 3.355469-7.5 7.5v70.050781c0 4.144531 3.359376 7.5 7.5 7.5 4.144532 0 7.5-3.355469 7.5-7.5v-70.050781c0-4.144531-3.355468-7.5-7.5-7.5zm0 0"/><path d="m414.648438 208.324219c-4.144532 0-7.5 3.355469-7.5 7.5v70.050781c0 4.144531 3.355468 7.5 7.5 7.5 4.140624 0 7.5-3.355469 7.5-7.5v-70.050781c0-4.144531-3.359376-7.5-7.5-7.5zm0 0"/><path d="m39.660156 262.921875c-4.140625 0-7.5 3.359375-7.5 7.5v113.320313c0 4.140624 3.359375 7.5 7.5 7.5 4.144532 0 7.5-3.359376 7.5-7.5v-113.320313c0-4.140625-3.355468-7.5-7.5-7.5zm0 0"/><path d="m472.339844 262.921875c-4.144532 0-7.5 3.359375-7.5 7.5v113.320313c0 4.140624 3.355468 7.5 7.5 7.5 4.140625 0 7.5-3.359376 7.5-7.5v-113.320313c0-4.140625-3.359375-7.5-7.5-7.5zm0 0"/></g><path d="m97.636719 215.824219h-.570313c-8.34375 0-15.167968-6.828125-15.167968-15.167969v-10.585938c0-8.5 6.953124-15.453124 15.453124-15.453124s15.453126 6.953124 15.453126 15.453124v10.585938c0 8.339844-6.824219 15.167969-15.167969 15.167969zm0 0" fill="#ffb300"/><path d="m414.933594 215.824219h-.570313c-8.34375 0-15.167969-6.828125-15.167969-15.167969v-10.585938c0-8.5 6.953126-15.453124 15.453126-15.453124s15.453124 6.953124 15.453124 15.453124v10.585938c0 8.339844-6.828124 15.167969-15.167968 15.167969zm0 0" fill="#ffb300"/><path d="m39.945312 270.421875h-.566406c-8.34375 0-15.167968-6.824219-15.167968-15.167969v-10.585937c0-8.496094 6.953124-15.453125 15.449218-15.453125 8.5 0 15.453125 6.957031 15.453125 15.453125v10.585937c0 8.34375-6.824219 15.167969-15.167969 15.167969zm0 0" fill="#ffb300"/><path d="m472.621094 270.421875h-.566406c-8.34375 0-15.167969-6.824219-15.167969-15.167969v-10.585937c0-8.496094 6.953125-15.453125 15.453125-15.453125 8.496094 0 15.449218 6.957031 15.449218 15.453125v10.585937c0 8.34375-6.824218 15.167969-15.167968 15.167969zm0 0" fill="#ffb300"/></svg>