<?xml version="1.0" encoding="iso-8859-1"?>
<!-- Generator: Adobe Illustrator 19.0.0, SVG Export Plug-In . SVG Version: 6.00 Build 0)  -->
<svg version="1.1" id="Layer_1" xmlns="http://www.w3.org/2000/svg" xmlns:xlink="http://www.w3.org/1999/xlink" x="0px" y="0px"
	 viewBox="0 0 496 496" style="enable-background:new 0 0 496 496;" xml:space="preserve">
<polygon style="fill:#C4E8F7;" points="488,424 488,408 482.4,408 482.4,400 470.4,400 470.4,411.2 460,411.2 460,419.2 
	424.8,419.2 424.8,411.2 412,411.2 412,422.4 378.4,422.4 378.4,412 373.6,412 373.6,411.2 364,411.2 364,407.2 364,407.2 
	364,396.8 353.6,396.8 353.6,407.2 352,407.2 352,414.4 342.4,414.4 342.4,412 336,412 336,413.6 331.2,413.6 331.2,413.6 
	329.6,413.6 329.6,378.4 308.8,378.4 308.8,413.6 305.6,413.6 305.6,417.6 288,417.6 288,413.6 282.4,413.6 282.4,408 276,408 
	276,412 273.6,412 273.6,424 272.8,424 272.8,456 496,456 496,424 "/>
<rect y="446.4" style="fill:#4DBBFF;" width="496" height="49.6"/>
<g>
	<rect y="452" style="fill:#80D5FF;" width="496" height="4.8"/>
	<rect y="466.4" style="fill:#80D5FF;" width="496" height="4.8"/>
	<rect y="480.8" style="fill:#80D5FF;" width="496" height="4.8"/>
</g>
<path style="fill:#057A5E;" d="M296.8,475.2c0,4-3.2,8-8,8h-82.4c-4,0-8-3.2-8-8v-45.6c0-4,3.2-8,8-8h82.4c4,0,8,3.2,8,8V475.2z"/>
<path style="fill:#085B45;" d="M199.2,429.6c0-4,3.2-8,8-8h82.4c4,0,8,3.2,8,8v45.6c0,4-3.2,8-8,8"/>
<path style="fill:#0EAD9A;" d="M268,124c0,18.4-9.6,14.4-20.8,14.4s-20.8,4-20.8-14.4s9.6-32.8,20.8-32.8
	C259.2,91.2,268,105.6,268,124z"/>
<path style="fill:#15CE87;" d="M207.2,43.2V0c-7.2,1.6-12,13.6-12,28c0,5.6,0.8,10.4,2.4,15.2H207.2z"/>
<path style="fill:#13BC9C;" d="M206.4,43.2V0c7.2,1.6,12,13.6,12,28c0,5.6-0.8,10.4-2.4,15.2H206.4z"/>
<rect id="SVGCleanerId_0" x="264.034" y="171.171" transform="matrix(-0.9082 -0.4186 0.4186 -0.9082 456.3271 498.4465)" style="fill:#3AE8A6;" width="37.601" height="56.001"/>
<polygon style="fill:#0EC196;" points="288,232.8 254.4,216.8 277.6,165.6 304.8,182.4 "/>
<path style="fill:#1DD894;" d="M280.8,144.8c0,0,8.8,12.8,22.4,22.4c0.8,0.8,15.2,9.6,4,13.6c-3.2,0.8-4,5.6,0,9.6
	c11.2,12-8,13.6-14.4,18.4c-6.4,5.6,1.6,9.6-4.8,14.4c-6.4,4-17.6-9.6-17.6-9.6l7.2-65.6L280.8,144.8z"/>
<path style="fill:#15CE87;" d="M306.4,180.8c-3.2,0.8-4,5.6,0,9.6c11.2,12-8,13.6-14.4,18.4c-6.4,5.6,1.6,9.6-4.8,14.4
	c-6.4,4-17.6-9.6-17.6-9.6l7.2-65.6l4-3.2"/>
<path style="fill:#0EC196;" d="M292,208.8c-6.4,5.6,1.6,9.6-4.8,14.4c-6.4,4-17.6-9.6-17.6-9.6l7.2-65.6l4-3.2"/>
<g>
	
		<rect id="SVGCleanerId_0_1_" x="264.034" y="171.171" transform="matrix(-0.9082 -0.4186 0.4186 -0.9082 456.3271 498.4465)" style="fill:#3AE8A6;" width="37.601" height="56.001"/>
</g>
<polygon style="fill:#15CE87;" points="288,232.8 254.4,216.8 277.6,165.6 304.8,182.4 "/>
<polygon style="fill:#13BC9C;" points="260.8,155.2 234.4,155.2 240.8,124.8 254.4,124.8 "/>
<path style="fill:#1DD894;" d="M303.2,206.4c0.8,0.8,1.6,1.6,0.8,3.2l-5.6,12c-0.8,0.8-1.6,1.6-3.2,0.8l-6.4-3.2
	c-0.8-0.8-1.6-1.6-0.8-3.2l5.6-12c0.8-0.8,2.4-1.6,3.2-0.8L303.2,206.4z"/>
<path style="fill:#13BC9C;" d="M219.2,176.8c0,4-3.2,7.2-7.2,7.2h-8c-4,0-7.2-3.2-7.2-7.2l-1.6-52.8c0-4,3.2-7.2,7.2-7.2h8
	c4,0,7.2,3.2,7.2,7.2L219.2,176.8z"/>
<path style="fill:#1DD894;" d="M214.4,144.8c0,0-8.8,12.8-22.4,22.4c-0.8,0.8-15.2,9.6-4,13.6c3.2,0.8,4,5.6,0,9.6
	c-11.2,12,8,13.6,14.4,18.4c6.4,5.6-1.6,9.6,4.8,14.4c6.4,4,17.6-9.6,17.6-9.6l-7.2-65.6L214.4,144.8z"/>
<path style="fill:#15CE87;" d="M188.8,180.8c3.2,0.8,4,5.6,0,9.6c-11.2,12,8,13.6,14.4,18.4c6.4,5.6-1.6,9.6,4.8,14.4
	c6.4,4,17.6-9.6,17.6-9.6l-7.2-65.6l-4-3.2"/>
<g>
	<path style="fill:#0EC196;" d="M203.2,208.8c6.4,5.6-1.6,9.6,4.8,14.4c6.4,4,17.6-9.6,17.6-9.6l-7.2-65.6l-4-3.2"/>
	<path style="fill:#0EC196;" d="M293.6,423.2c0,3.2-2.4,5.6-5.6,5.6h-80.8c-3.2,0-5.6-2.4-5.6-5.6l11.2-204c0-3.2,2.4-5.6,5.6-5.6
		h58.4c3.2,0,5.6,2.4,5.6,5.6L293.6,423.2z"/>
</g>
<path style="fill:#0FB293;" d="M205.6,337.6l-3.2,54.4l36,36H288c3.2,0,5.6-2.4,5.6-5.6l-2.4-42.4l-64-64L205.6,337.6z"/>
<path style="fill:#13BC9C;" d="M212.8,219.2c0-3.2,2.4-5.6,5.6-5.6h58.4c3.2,0,5.6,2.4,5.6,5.6l11.2,204c0,3.2-2.4,5.6-5.6,5.6"/>
<path style="fill:#1DD894;" d="M301.6,386.4c0,4-3.2,6.4-6.4,6.4H200c-4,0-6.4-3.2-6.4-6.4l20-238.4c0-4,3.2-6.4,6.4-6.4h55.2
	c4,0,6.4,3.2,6.4,6.4L301.6,386.4z"/>
<path style="fill:#15CE87;" d="M213.6,148.8c0-4,3.2-6.4,6.4-6.4h55.2c4,0,6.4,3.2,6.4,6.4l20,238.4c0,4-3.2,6.4-6.4,6.4H244"/>
<path style="fill:#79F2C1;" d="M200,392.8c-4,0-6.4-3.2-6.4-6.4l20-238.4c0-4,3.2-6.4,6.4-6.4h55.2"/>
<path style="fill:#3AE8A6;" d="M275.2,141.6H220c-4,0-6.4,3.2-6.4,6.4l17.6,140.8L275.2,141.6z"/>
<path style="fill:#0EC196;" d="M220,141.6h55.2c4,0,6.4,3.2,6.4,6.4l20,238.4c0,4-3.2,6.4-6.4,6.4"/>
<polygon style="fill:#15CE87;" points="275.2,141.6 220,141.6 247.2,233.6 "/>
<path style="fill:#1DD894;" d="M217.6,122.4c0,5.6-4.8,10.4-11.2,10.4l0,0c-6.4,0-11.2-4.8-11.2-10.4l8-62.4
	c0-5.6-3.2-10.4,3.2-10.4l0,0c6.4,0,3.2,4.8,3.2,10.4L217.6,122.4z"/>
<path style="fill:#15CE87;" d="M203.2,59.2c0-5.6-3.2-10.4,3.2-10.4l0,0c6.4,0,3.2,4.8,3.2,10.4l8,62.4c0,5.6-4.8,10.4-11.2,10.4
	l0,0"/>
<path style="fill:#3AE8A6;" d="M215.2,58.4c0,3.2-2.4,6.4-6.4,6.4h-4c-3.2,0-6.4-2.4-6.4-6.4v-8.8c0-3.2,2.4-6.4,6.4-6.4h4
	c3.2,0,6.4,2.4,6.4,6.4V58.4z"/>
<path style="fill:#13BC9C;" d="M198.4,49.6c0-3.2,2.4-6.4,6.4-6.4h4c3.2,0,6.4,2.4,6.4,6.4v9.6c0,3.2-2.4,6.4-6.4,6.4h-4"/>
<g>
	<path style="fill:#1DD894;" d="M222.4,44c0,1.6-1.6,3.2-3.2,3.2H196c-1.6,0-3.2-1.6-3.2-3.2l0,0c0-1.6,1.6-3.2,3.2-3.2h23.2
		C220.8,40.8,222.4,42.4,222.4,44L222.4,44z"/>
	<path style="fill:#1DD894;" d="M264.8,108c0,8.8-8,28-16.8,28c-9.6,0-16.8-20-16.8-28s8-4,16.8-4S264.8,100,264.8,108z"/>
</g>
<path style="fill:#15CE87;" d="M230.4,108c0-8,8-4,16.8-4c9.6,0,16.8-4,16.8,4"/>
<g>
	<path style="fill:#13BC9C;" d="M247.2,104c9.6,0,16.8-4,16.8,4c0,8.8-8,28-16.8,28"/>
	<path style="fill:#13BC9C;" d="M267.2,103.2c0,1.6-0.8,2.4-2.4,2.4h-34.4c-1.6,0-2.4-0.8-2.4-2.4l0,0c0-1.6,0.8-2.4,2.4-2.4h34.4
		C266.4,100.8,267.2,102.4,267.2,103.2L267.2,103.2z"/>
</g>
<polygon style="fill:#1DD894;" points="233.6,97.6 233.6,102.4 228,102.4 220,88.8 "/>
<polyline style="fill:#13BC9C;" points="220,88.8 233.6,97.6 233.6,102.4 "/>
<polygon style="fill:#1DD894;" points="241.6,96.8 240,104 233.6,102.4 226.4,83.2 "/>
<polyline style="fill:#13BC9C;" points="226.4,83.2 241.6,96.8 240,104 "/>
<polygon style="fill:#1DD894;" points="248,96.8 244.8,103.2 238.4,100 237.6,80 "/>
<polyline style="fill:#13BC9C;" points="237.6,80 248,96.8 244.8,103.2 "/>
<polygon style="fill:#1DD894;" points="261.6,97.6 261.6,102.4 267.2,102.4 275.2,88.8 "/>
<polyline style="fill:#13BC9C;" points="275.2,88.8 261.6,97.6 261.6,102.4 "/>
<polygon style="fill:#1DD894;" points="253.6,96.8 255.2,104 261.6,102.4 268.8,83.2 "/>
<polyline style="fill:#13BC9C;" points="268.8,83.2 253.6,96.8 255.2,104 "/>
<polygon style="fill:#1DD894;" points="247.2,96.8 250.4,103.2 256.8,100 257.6,80 "/>
<polyline style="fill:#13BC9C;" points="257.6,80 247.2,96.8 250.4,103.2 "/>
<polygon style="fill:#1DD894;" points="252,99.2 247.2,104 242.4,99.2 247.2,79.2 "/>
<polyline style="fill:#13BC9C;" points="247.2,79.2 252,99.2 247.2,104 "/>
<path style="fill:#15CE87;" d="M302.4,427.2c0,1.6-1.6,3.2-3.2,3.2H196c-1.6,0-3.2-1.6-3.2-3.2l0,0c0-1.6,1.6-3.2,3.2-3.2h103.2
	C300.8,424,302.4,425.6,302.4,427.2L302.4,427.2z"/>
<path style="fill:#085B45;" d="M356.8,488c0,4-3.2,8-8,8H147.2c-4,0-8-3.2-8-8v-6.4c0-4,3.2-8,8-8h201.6c4.8,0,8,3.2,8,8V488z"/>
<path style="fill:#219352;" d="M157.6,424c0,1.6-0.8,2.4-2.4,2.4h-45.6c-1.6,0-2.4-0.8-2.4-2.4v-25.6c0-1.6,0.8-2.4,2.4-2.4h45.6
	c1.6,0,2.4,0.8,2.4,2.4V424z"/>
<path style="fill:#42B779;" d="M140.8,424v-25.6c0-1.6-0.8-2.4-2.4-2.4h-28.8c-1.6,0-2.4,0.8-2.4,2.4V424c0,1.6,0.8,2.4,2.4,2.4
	h28.8C140,426.4,140.8,425.6,140.8,424z"/>
<g>
	<path style="fill:#143647;" d="M72,372.8c0,0.8-0.8,0.8-0.8,0.8l0,0c-0.8,0-0.8,0-0.8-0.8V340c0-0.8,0-0.8,0.8-0.8l0,0
		c0.8,0,0.8,0,0.8,0.8V372.8z"/>
	<path style="fill:#143647;" d="M76,387.2c0,1.6-0.8,2.4-2.4,2.4h-4.8c-1.6,0-2.4-0.8-2.4-2.4v-20c0-1.6,0.8-2.4,2.4-2.4h5.6
		c1.6,0,2.4,0.8,2.4,2.4v20H76z"/>
	<path style="fill:#143647;" d="M83.2,420.8c0,0.8-0.8,1.6-1.6,1.6h-20c-0.8,0-1.6-0.8-1.6-1.6v-49.6c0-0.8,0.8-1.6,1.6-1.6h20.8
		c0.8,0,1.6,0.8,1.6,1.6v49.6H83.2z"/>
</g>
<path style="fill:#1C4859;" d="M73.6,420.8v-49.6c0-0.8-0.8-1.6-1.6-1.6H61.6c-0.8,0-1.6,0.8-1.6,1.6v49.6c0,0.8,0.8,1.6,1.6,1.6H72
	C72.8,422.4,73.6,421.6,73.6,420.8z"/>
<path style="fill:#92A0A5;" d="M96,421.6c0,1.6-0.8,2.4-2.4,2.4h-44c-1.6,0-2.4-0.8-2.4-2.4v-23.2c0-1.6,0.8-2.4,2.4-2.4h43.2
	c1.6,0,2.4,0.8,2.4,2.4v23.2H96z"/>
<path style="fill:#ACB8BC;" d="M49.6,396c-1.6,0-2.4,0.8-2.4,2.4v22.4h34.4c1.6,0,2.4-0.8,2.4-2.4V396H49.6z"/>
<path style="fill:#458599;" d="M80.8,418.4c0,1.6-0.8,2.4-2.4,2.4H76c-1.6,0-2.4-0.8-2.4-2.4V404c0-1.6,0.8-2.4,2.4-2.4h2.4
	c1.6,0,2.4,0.8,2.4,2.4V418.4z"/>
<path style="fill:#143647;" d="M176.8,419.2c-0.8-0.8-1.6-1.6-2.4-1.6H31.2c-0.8,0-1.6,0-2.4,0.8c-0.8,0.8-0.8,1.6-0.8,2.4l8,25.6
	c0,0.8,1.6,1.6,2.4,1.6h122.4c0.8,0,1.6-0.8,2.4-1.6l12.8-25.6C176.8,420.8,176.8,420,176.8,419.2z"/>
<path style="fill:#0B232D;" d="M36,446.4c0,0.8,1.6,1.6,2.4,1.6h122.4c0.8,0,1.6-0.8,2.4-1.6l8-15.2H32L36,446.4z"/>
<polygon style="fill:#E00E0E;" points="30.4,428 173.6,428 175.2,424 29.6,424 "/>
<g>
	<circle style="fill:#0C91C4;" cx="49.6" cy="434.4" r="2.4"/>
	<circle style="fill:#0C91C4;" cx="68.8" cy="434.4" r="2.4"/>
	<circle style="fill:#0C91C4;" cx="88.8" cy="434.4" r="2.4"/>
	<circle style="fill:#0C91C4;" cx="108" cy="434.4" r="2.4"/>
	<circle style="fill:#0C91C4;" cx="127.2" cy="434.4" r="2.4"/>
	<circle style="fill:#0C91C4;" cx="146.4" cy="434.4" r="2.4"/>
	<path style="fill:#0C91C4;" d="M56,406.4L56,406.4h-4l0,0v-4l0,0h4l0,0V406.4z"/>
	<path style="fill:#0C91C4;" d="M63.2,406.4L63.2,406.4h-4l0,0v-4l0,0h4l0,0V406.4z"/>
	<path style="fill:#0C91C4;" d="M70.4,406.4L70.4,406.4h-4l0,0v-4l0,0h4l0,0V406.4z"/>
</g>
<g>
	<path style="fill:#143647;" d="M81.6,348c0,0.8-0.8,0.8-0.8,0.8H62.4c-0.8,0-0.8-0.8-0.8-0.8l0,0c0-0.8,0.8-0.8,0.8-0.8h18.4
		C80.8,347.2,81.6,347.2,81.6,348L81.6,348z"/>
	<path style="fill:#143647;" d="M81.6,352c0,0.8-0.8,0.8-0.8,0.8H62.4c-0.8,0-0.8-0.8-0.8-0.8l0,0c0-0.8,0.8-0.8,0.8-0.8h18.4
		C80.8,351.2,81.6,351.2,81.6,352L81.6,352z"/>
	<path style="fill:#143647;" d="M81.6,355.2c0,0.8-0.8,0.8-0.8,0.8H62.4c-0.8,0-0.8-0.8-0.8-0.8l0,0c0-0.8,0.8-0.8,0.8-0.8h18.4
		C80.8,354.4,81.6,355.2,81.6,355.2L81.6,355.2z"/>
</g>
<g>
</g>
<g>
</g>
<g>
</g>
<g>
</g>
<g>
</g>
<g>
</g>
<g>
</g>
<g>
</g>
<g>
</g>
<g>
</g>
<g>
</g>
<g>
</g>
<g>
</g>
<g>
</g>
<g>
</g>
</svg>
