<svg height="512" viewBox="0 0 64 64" width="512" xmlns="http://www.w3.org/2000/svg"><g id="Flat"><g id="Stroke_copy_2" data-name="Stroke copy 2"><g><path d="m31 31-6 1-3.344 2.388a4 4 0 0 0 -3.656-2.388v9h5l7-2 4.532 2h5.468a7 7 0 0 0 7-7v-18.235a7.358 7.358 0 0 0 -1.821-4.846l-2.979-3.406a7.359 7.359 0 0 0 -5.54-2.513h-1.534a7.209 7.209 0 0 0 -5.2 2.074 7.365 7.365 0 0 1 -1.993 1.46l-2.933 1.466a4 4 0 0 0 4 4h5a4.067 4.067 0 0 1 -.738 5.346l-1.854 1.59a6.9 6.9 0 0 0 -2.408 5.236 6.826 6.826 0 0 0 2 4.828z" fill="#57b7eb"/><path d="m31 24.5a7.446 7.446 0 0 1 1.538-4.533l-1.13.969a6.9 6.9 0 0 0 -2.367 4.484v.015c-.023.216-.033.435-.035.654a7.455 7.455 0 0 0 .852 3.386 6.8 6.8 0 0 0 1.142 1.525h3.769a7.493 7.493 0 0 1 -3.769-6.5z" fill="#4891d3"/><path d="m36 20-6 3-.2-.029a6.888 6.888 0 0 0 -.8 3.2 6.777 6.777 0 0 0 .206 1.629l.794.2 8-4z" fill="#4891d3"/><path d="m50 48-34-1-4-4 4-2h7l7 2 4.532-2h13.468l4 2z" fill="#84d2f4"/><path d="m34.532 43-4.532 2-7-2h-7l-2.667 1.333 2.667 2.667 34 1 1.333-3.333-3.333-1.667z" fill="#57b7eb"/><path d="m35.268 4a2 2 0 0 1 2.732-.732 2 2 0 0 1 .732 2.732l-1 1.732-1.732-1a2 2 0 0 1 -.732-2.732z" fill="#57b7eb"/><path d="m27 12a2 2 0 0 0 1.174-3.612c-.083.045-.158.1-.242.146l-2.932 1.466a2 2 0 0 0 2 2z" fill="#93999a"/><path d="m61 47-6.321-1.4a8.884 8.884 0 0 0 -5.227.424 8.885 8.885 0 0 1 -5.042.463l-4.374-.875a11.652 11.652 0 0 0 -5.973.372 11.661 11.661 0 0 1 -6.215.321l-3.921-.872a8.884 8.884 0 0 0 -3.854 0 34.316 34.316 0 0 1 -14.173.146l-2.9-.579v16h58z" fill="#2d72bc"/><g><path d="m48.85 46.23-2.85 7.77-1 7h-19l-1-5-5-4-.54-6.44c.2-.04.41-.09.61-.13a8.974 8.974 0 0 1 3.86 0l3.9.87h.02a11.341 11.341 0 0 0 2.53.28 11.534 11.534 0 0 0 3.68-.6 11.682 11.682 0 0 1 5.98-.37l.82.16 3.55.71a8.581 8.581 0 0 0 1.75.17 8.789 8.789 0 0 0 2.69-.42z" fill="#4891d3"/><path d="m42 53-4.14 8h-6.36l2.5-7-2-3-4-3-.17-1.7h.02a11.341 11.341 0 0 0 2.53.28 11.534 11.534 0 0 0 3.68-.6 11.682 11.682 0 0 1 5.98-.37l.82.16-1.86 3.23z" fill="#57b7eb"/></g><path d="m19 12a1.984 1.984 0 0 0 -1.084.323 3 3 0 0 0 -2.916-2.323 3.035 3.035 0 0 0 -.526.053 3.976 3.976 0 0 0 -7.106.291 3 3 0 1 0 .917 4.578 3.958 3.958 0 0 0 4.879.434 2.953 2.953 0 0 0 4.091-.4 2 2 0 1 0 1.745-2.956z" fill="#d0d8da"/><path d="m55 15a2.99 2.99 0 0 1 2.822 2.018c.059 0 .117-.018.178-.018a2 2 0 1 1 -1.324 3.488 3 3 0 1 1 -1.676-5.488z" fill="#d0d8da"/><path d="m42 37h-4.414a5 5 0 0 1 -2.019-.426 10.785 10.785 0 0 0 -7.316-.5l-3.251.926a4.983 4.983 0 0 1 -4.941-4.418 3.954 3.954 0 0 0 -2.059-.582v9h5l7-2 4.532 2h5.468a7 7 0 0 0 6.925-6.027 6.979 6.979 0 0 1 -4.925 2.027z" fill="#4891d3"/><path d="m38 24-7 2-8-2a4.572 4.572 0 0 1 5.082-3.417l2.918.417 4.789-2.394a1 1 0 0 1 1.434.73z" fill="#84d2f4"/><path d="m37.082 18.49a6.267 6.267 0 0 1 -7.712 5.1l-5.462-1.366a4.524 4.524 0 0 0 -.908 1.776l8 2 7-2z" fill="#57b7eb"/><path d="m31 11a3.988 3.988 0 0 1 -3.564-2.218l-2.436 1.218a4 4 0 0 0 4 4h7l-.3-.453a5.62 5.62 0 0 0 -4.7-2.547z" fill="#4891d3"/><path d="m27 12a2 2 0 0 0 1.174-3.612c-.083.045-.158.1-.242.146l-2.932 1.466a2 2 0 0 0 2 2z" fill="#93999a"/><path d="m28 11a2 2 0 0 1 -1.939-1.531l-1.061.531a2 2 0 0 0 3.82.82 1.99 1.99 0 0 1 -.82.18z" fill="#656b76"/><path d="m31.8 20.6 3.989-2a1.008 1.008 0 0 1 .172-.061 4.057 4.057 0 0 0 .039-4.539h-2a4.068 4.068 0 0 1 -.738 5.346z" fill="#4891d3"/><path d="m59 19a1.982 1.982 0 0 1 -1.324-.512 3 3 0 0 1 -4.676-2.488c0-.083.018-.16.024-.242a2.994 2.994 0 0 0 3.652 4.73 1.991 1.991 0 0 0 3.324-1.488 1.905 1.905 0 0 0 -.027-.263 1.972 1.972 0 0 1 -.973.263z" fill="#93999a"/><path d="m20 14a1.992 1.992 0 0 1 -1.745-1.041 2.953 2.953 0 0 1 -4.091.4 3.958 3.958 0 0 1 -4.879-.434 2.987 2.987 0 0 1 -5.285-1.925c0-.083.018-.16.024-.242a2.989 2.989 0 1 0 4.261 4.164 3.958 3.958 0 0 0 4.879.434 2.953 2.953 0 0 0 4.091-.4 1.994 1.994 0 0 0 3.745-.956 1.905 1.905 0 0 0 -.027-.263 1.972 1.972 0 0 1 -.973.263z" fill="#93999a"/><path d="m37.732 6a2 2 0 0 0 -.732-2.732 2.04 2.04 0 0 0 -.518-.2 2 2 0 0 0 -.482 3.664l.982.567z" fill="#4891d3"/></g></g></g></svg>