<svg id="Layer_2" height="512" viewBox="0 0 64 64" width="512" xmlns="http://www.w3.org/2000/svg" data-name="Layer 2"><path d="m6 11a1 1 0 0 1 -1-1v-9a1 1 0 0 1 2 0v9a1 1 0 0 1 -1 1z" fill="#d6ae03"/><path d="m58 11a1 1 0 0 1 -1-1v-9a1 1 0 0 1 2 0v9a1 1 0 0 1 -1 1z" fill="#d6ae03"/><path d="m32 10a1 1 0 0 1 -1-1v-8a1 1 0 0 1 2 0v8a1 1 0 0 1 -1 1z" fill="#d6ae03"/><path d="m24 22.241v-5.093c0-3.562 5.232-6.887 8-8.148 2.768 1.261 8 4.586 8 8.148v5.093z" fill="#f8dc32"/><path d="m2 10.019h8v12.222h-8z" fill="#f8dc32"/><path d="m54 10.019h8v12.222h-8z" fill="#f8dc32"/><path d="m1 22.241h62v41.759h-62z" fill="#d6ae03"/><path d="m32 23a1 1 0 0 1 -1-1v-6a1 1 0 0 1 2 0v6a1 1 0 0 1 -1 1z" fill="#d6ae03"/><g fill="#f8dc32"><path d="m62 43h-13v-14h13a1 1 0 0 0 0-2h-37a1 1 0 0 0 0 2h6v14h-14v-14h4a1 1 0 0 0 0-2h-19a1 1 0 0 0 0 2h13v14h-13a1 1 0 0 0 0 2h13v18a1 1 0 0 0 2 0v-18h14v18a1 1 0 0 0 2 0v-18h14v18a1 1 0 0 0 2 0v-18h13a1 1 0 0 0 0-2zm-29 0v-14h14v14z"/><path d="m10 38v-4a1 1 0 0 0 -2 0v4a1 1 0 0 0 2 0z"/><path d="m9 48a1 1 0 0 0 -1 1v4a1 1 0 0 0 2 0v-4a1 1 0 0 0 -1-1z"/><path d="m9 57a1 1 0 0 0 -1 1v4a1 1 0 0 0 2 0v-4a1 1 0 0 0 -1-1z"/><path d="m24 39a1 1 0 0 0 1-1v-4a1 1 0 0 0 -2 0v4a1 1 0 0 0 1 1z"/><path d="m24 48a1 1 0 0 0 -1 1v4a1 1 0 0 0 2 0v-4a1 1 0 0 0 -1-1z"/><path d="m24 57a1 1 0 0 0 -1 1v4a1 1 0 0 0 2 0v-4a1 1 0 0 0 -1-1z"/><path d="m40 33a1 1 0 0 0 -1 1v4a1 1 0 0 0 2 0v-4a1 1 0 0 0 -1-1z"/><path d="m40 48a1 1 0 0 0 -1 1v4a1 1 0 0 0 2 0v-4a1 1 0 0 0 -1-1z"/><path d="m40 57a1 1 0 0 0 -1 1v4a1 1 0 0 0 2 0v-4a1 1 0 0 0 -1-1z"/><path d="m54 34v4a1 1 0 0 0 2 0v-4a1 1 0 0 0 -2 0z"/><path d="m55 48a1 1 0 0 0 -1 1v4a1 1 0 0 0 2 0v-4a1 1 0 0 0 -1-1z"/><path d="m55 57a1 1 0 0 0 -1 1v4a1 1 0 0 0 2 0v-4a1 1 0 0 0 -1-1z"/></g></svg>