<svg width="30" height="24" viewBox="0 0 30 24" fill="none" xmlns="http://www.w3.org/2000/svg">
<path d="M2.97137 17.4435C3.45047 16.864 4.12317 15.2454 10.5391 15.1147C10.6051 15.1133 13.4205 15.0725 14.918 16.2827C16.3657 17.4526 16.7963 18.1389 16.3277 20.5271C16.0793 21.7927 14.6649 22.8485 13.9083 23.0219C13.1044 23.2061 11.4336 23.249 10.5391 22.4368C9.41434 21.4155 9.1428 19.4609 9.1428 19.4609" stroke="#B5BFC8" stroke-width="1.2" stroke-linecap="square"/>
<path d="M0.914246 9.37391C2.15206 8.76697 4.29364 7.44605 7.61331 6.89117C8.87066 6.681 10.8415 6.72476 12.2078 6.7385C15.2473 6.76906 18.547 7.56921 20.366 6.89117C21.7743 6.36621 22.2963 5.10639 22.1651 4.17813C21.5845 0.0704632 17.3714 1.30435 17.3714 1.30435" stroke="#B5BFC8" stroke-width="1.2" stroke-linecap="square"/>
<path d="M0.914246 13.4087C2.41745 13.6415 4.52664 10.9337 12.5054 10.9337C20.4842 10.9337 28.7174 9.67601 29.102 13.078C29.2922 14.7598 28.9893 16.5727 28.543 17.1816C28.0081 17.9112 27.5005 18.8332 24.8198 18.8332C22.1392 18.8332 20.4571 16.4348 20.4571 16.4348" stroke="#B5BFC8" stroke-width="1.2" stroke-linecap="square"/>
</svg>
