<svg width="20" height="20" viewBox="0 0 20 20" fill="none" xmlns="http://www.w3.org/2000/svg">
<g clip-path="url(#clip0)">
<path d="M17.6217 12.308V12.3784C17.6217 16.5761 14.1978 20 10 20C5.80219 20 2.37835 16.5761 2.37835 12.3784C2.37835 12.1907 2.39007 12.0149 2.40184 11.839L3.48055 11.5341C3.53918 11.6279 3.5744 11.7217 3.5744 11.839C3.5744 12.4721 4.11374 13.0115 4.74696 13.0115C5.39187 13.0115 5.91952 12.4839 5.91952 11.839C5.91952 11.5107 6.17745 11.2527 6.5058 11.2527C6.83408 11.2527 7.09208 11.5107 7.09208 11.839C7.09208 12.4721 7.63142 13.0115 8.26465 13.0115C8.90956 13.0115 9.43721 12.4839 9.43721 11.839C9.43721 11.5223 9.68341 11.2644 10 11.2527C10.0117 11.2527 10.0117 11.2527 10.0235 11.2527C10.3518 11.2527 10.6098 11.5107 10.6098 11.839C10.6098 12.4721 11.1491 13.0115 11.7823 13.0115C12.4272 13.0115 12.9549 12.4839 12.9549 11.839C12.9549 11.5107 13.2128 11.2527 13.5412 11.2527C13.8695 11.2527 14.1275 11.5107 14.1275 11.839C14.1275 12.4721 14.6668 13.0115 15.3 13.0115C15.8511 13.0115 16.3319 12.6129 16.4491 12.0735C16.4843 11.921 16.5663 11.8155 16.6719 11.7335L17.5982 12.308H17.6217Z" fill="#25D9F8"/>
<path d="M17.6217 12.308V12.3784C17.6217 16.5761 14.1978 20 10 20V11.2527C10.0117 11.2527 10.0117 11.2527 10.0235 11.2527C10.3518 11.2527 10.6098 11.5107 10.6098 11.839C10.6098 12.4721 11.1491 13.0115 11.7823 13.0115C12.4272 13.0115 12.9549 12.4839 12.9549 11.839C12.9549 11.5107 13.2128 11.2527 13.5412 11.2527C13.8695 11.2527 14.1275 11.5107 14.1275 11.839C14.1275 12.4721 14.6668 13.0115 15.3 13.0115C15.8511 13.0115 16.3319 12.6129 16.4491 12.0735C16.4843 11.921 16.5663 11.8155 16.6719 11.7335L17.5982 12.308H17.6217Z" fill="#00C0F1"/>
<path d="M16.0973 7.80532L10.4691 0.222787C10.3518 0.0820012 10.1759 0 10 0C9.82408 0 9.64823 0.0820012 9.53094 0.222787L3.90264 7.80532C3.03494 8.97788 2.51901 10.3615 2.4018 11.8389C2.4018 13.1288 3.45706 14.1841 4.74692 14.1841C5.45042 14.1841 6.07192 13.8792 6.50576 13.3867C6.93961 13.8791 7.56103 14.1841 8.26461 14.1841C8.95638 14.1841 9.56615 13.8909 9.99996 13.4102C10.0117 13.3985 10.0117 13.3985 10.0235 13.3867C10.4573 13.8791 11.0787 14.1841 11.7823 14.1841C12.4858 14.1841 13.1073 13.8792 13.5411 13.3867C13.975 13.8791 14.5964 14.1841 15.3 14.1841C16.4022 14.1841 17.3754 13.3985 17.5982 12.308C17.6099 12.2611 17.6099 12.2259 17.6099 12.179C17.5748 10.596 17.0471 9.09517 16.0973 7.80532Z" fill="#76E2F8"/>
<path d="M17.6099 12.1789C17.6099 12.2259 17.6099 12.261 17.5982 12.308C17.3754 13.3984 16.4022 14.184 15.3 14.184C14.5964 14.184 13.975 13.8791 13.5412 13.3867C13.1073 13.8791 12.4858 14.184 11.7823 14.184C11.0788 14.184 10.4573 13.8791 10.0235 13.3867C10.0118 13.3984 10.0118 13.3984 10 13.4102V0C10.1759 0 10.3518 0.0820012 10.4691 0.222787L16.0974 7.80532C17.0471 9.09517 17.5748 10.596 17.6099 12.1789Z" fill="#25D9F8"/>
</g>
<defs>
<clipPath id="clip0">
<rect width="20" height="20" fill="white"/>
</clipPath>
</defs>
</svg>
