<?xml version="1.0"?>
<svg xmlns="http://www.w3.org/2000/svg" xmlns:xlink="http://www.w3.org/1999/xlink" version="1.1" id="Layer_1" x="0px" y="0px" viewBox="0 0 511.975 511.975" style="enable-background:new 0 0 511.975 511.975;" xml:space="preserve" width="512px" height="512px"><g><g>
	<path style="fill:#F5BA45;" d="M444.858,67.106c4.172,4.172,4.156,10.921,0,15.093c-4.17,4.172-10.92,4.172-15.092,0   c-4.156-4.172-4.156-10.921,0-15.077C433.938,62.95,440.688,62.95,444.858,67.106z" data-original="#F5BA45"/>
	<path style="fill:#F5BA45;" d="M444.858,195.102c4.172,4.171,4.156,10.921,0,15.093c-4.17,4.172-10.92,4.172-15.092,0   c-4.156-4.172-4.156-10.922,0-15.093C433.938,190.946,440.688,190.946,444.858,195.102z" data-original="#F5BA45"/>
</g><g>
	<path style="fill:#FECD57;" d="M392.065,82.73c5.891,0,10.672,4.781,10.672,10.672s-4.781,10.672-10.672,10.672   s-10.672-4.781-10.672-10.672S386.175,82.73,392.065,82.73z" data-original="#FECD57"/>
	<path style="fill:#FECD57;" d="M482.561,173.243c5.891,0,10.672,4.781,10.672,10.656c0,5.906-4.781,10.672-10.672,10.672   s-10.656-4.766-10.656-10.672C471.905,178.009,476.671,173.243,482.561,173.243z" data-original="#FECD57"/>
</g><g>
	<path style="fill:#F5BA45;" d="M365.768,131.104c4.172-4.156,10.922-4.156,15.094,0.016c4.172,4.156,4.156,10.906,0,15.078   c-4.172,4.155-10.922,4.171-15.094,0C361.612,142.026,361.612,135.276,365.768,131.104z" data-original="#F5BA45"/>
	<path style="fill:#F5BA45;" d="M493.764,131.104c4.172-4.156,10.922-4.156,15.094,0c4.156,4.172,4.156,10.922,0,15.094   c-4.172,4.171-10.922,4.171-15.094,0C489.608,142.026,489.608,135.276,493.764,131.104z" data-original="#F5BA45"/>
</g><g>
	<path style="fill:#FECD57;" d="M381.393,183.899c0-5.891,4.781-10.656,10.672-10.656s10.672,4.766,10.672,10.656   s-4.781,10.672-10.672,10.672S381.393,189.79,381.393,183.899z" data-original="#FECD57"/>
	<path style="fill:#FECD57;" d="M471.905,93.402c0-5.891,4.766-10.672,10.656-10.672s10.672,4.781,10.672,10.672   s-4.781,10.656-10.672,10.656C476.671,104.074,471.905,99.293,471.905,93.402z" data-original="#FECD57"/>
	<path style="fill:#FECD57;" d="M437.313,170.649c-17.641,0-31.998-14.358-31.998-31.998c0-17.641,14.357-31.999,31.998-31.999   c17.639,0,31.998,14.358,31.998,31.999C469.311,156.291,454.952,170.649,437.313,170.649z" data-original="#FECD57"/>
</g><path style="fill:#F5BA45;" d="M437.313,95.996c-23.561,0-42.67,19.093-42.67,42.655c0,23.561,19.109,42.67,42.67,42.67  s42.67-19.109,42.67-42.67C479.983,115.089,460.874,95.996,437.313,95.996z M437.313,159.994c-11.766,0-21.326-9.578-21.326-21.343  c0-11.766,9.561-21.328,21.326-21.328c11.764,0,21.326,9.563,21.326,21.328C458.639,150.416,449.077,159.994,437.313,159.994z" data-original="#F5BA45"/><g>
	<path style="fill:#FFD7DB" d="M157.979,358.504c-0.016-0.016-0.016-0.016-0.016-0.031l-52.218-117.481   c-0.016-0.031-0.047-0.063-0.063-0.094c-1.031-2.297-2.875-4.219-5.359-5.328c-5.374-2.391-11.687,0.031-14.077,5.422   L0.921,432.986c-2.39,5.375,0.031,11.671,5.406,14.077c1.422,0.625,2.891,0.922,4.328,0.922c4.094,0,7.984-2.375,9.75-6.343   l30.374-68.327h90.435l30.358,68.327c1.766,3.968,5.672,6.343,9.765,6.343c1.438,0,2.906-0.297,4.313-0.922   c5.391-2.406,7.813-8.702,5.422-14.077L157.979,358.504z M60.262,351.972l35.734-80.388l35.733,80.388H60.262z" data-original="#D94452" class="active-path" data-old_color="#D94452"/>
	<path style="fill:#FFD7DB" d="M415.987,234.647c-3.453,0-6.516,1.656-8.469,4.188l-87.529,97.2l-88.076-97.856   c-0.016-0.031-0.047-0.047-0.078-0.063c-1.953-2.125-4.734-3.469-7.844-3.469c-5.89,0-10.671,4.781-10.671,10.672v191.995   c0,5.89,4.781,10.655,10.671,10.655c5.891,0,10.672-4.766,10.672-10.655V273.116l77.388,85.997l0,0   c0.25,0.281,0.516,0.547,0.797,0.797l0.016,0.016c0.078,0.063,0.156,0.125,0.25,0.188c0.188,0.172,0.391,0.328,0.594,0.484   c0.109,0.078,0.234,0.156,0.359,0.25c0.172,0.109,0.359,0.234,0.531,0.328c0.125,0.078,0.266,0.141,0.391,0.219   c0.188,0.094,0.375,0.188,0.563,0.281c0.125,0.063,0.25,0.109,0.375,0.156c0.203,0.094,0.406,0.171,0.625,0.233   c0.125,0.047,0.234,0.078,0.359,0.125c0.219,0.063,0.453,0.125,0.672,0.172c0.109,0.031,0.219,0.047,0.344,0.078   c0.25,0.047,0.5,0.078,0.75,0.109c0.094,0.016,0.188,0.031,0.281,0.047c0.344,0.031,0.688,0.047,1.031,0.047l0,0l0,0l0,0   c2.922,0,5.813-1.187,7.922-3.53l77.404-85.95v164.151c0,5.89,4.781,10.655,10.672,10.655c5.889,0,10.654-4.766,10.654-10.655   V245.319C426.641,239.428,421.876,234.647,415.987,234.647z" data-original="#D94452" class="active-path" data-old_color="#D94452"/>
</g></g> </svg>
