<?xml version="1.0"?>
<svg xmlns="http://www.w3.org/2000/svg" xmlns:xlink="http://www.w3.org/1999/xlink" version="1.1" id="Layer_1" x="0px" y="0px" viewBox="0 0 511.985 511.985" style="enable-background:new 0 0 511.985 511.985;" xml:space="preserve" width="512px" height="512px" class=""><g><g>
	<path style="fill:#BFBFF6" d="M404.582,232.915c-0.469-2.078-1.563-4.047-3.266-5.578c-4.375-3.953-11.125-3.593-15.063,0.781   l-87.591,97.262l-88.075-97.855c-0.016-0.031-0.047-0.047-0.078-0.063c-1.953-2.125-4.734-3.468-7.844-3.468   c-5.891,0-10.672,4.781-10.672,10.671v191.994c0,5.891,4.781,10.656,10.672,10.656s10.656-4.766,10.656-10.656V262.462   l77.403,85.996c2.109,2.344,5.016,3.531,7.922,3.531l0,0h0.016l0,0c0.344,0,0.688-0.016,1.031-0.047   c0.094-0.016,0.188-0.031,0.281-0.047c0.25-0.031,0.5-0.063,0.75-0.109c0.109-0.031,0.219-0.047,0.344-0.078   c0.219-0.063,0.438-0.109,0.656-0.172c0.125-0.047,0.25-0.078,0.375-0.125c0.203-0.063,0.406-0.141,0.609-0.234   c0.125-0.047,0.25-0.094,0.375-0.156c0.203-0.094,0.391-0.188,0.578-0.281c0.125-0.078,0.25-0.141,0.375-0.219   c0.188-0.094,0.359-0.219,0.531-0.344c0.125-0.078,0.25-0.156,0.375-0.234c0.203-0.156,0.391-0.313,0.594-0.484   c0.078-0.063,0.156-0.125,0.234-0.188c0.016-0.016,0.016-0.016,0.016-0.016c0.281-0.25,0.547-0.516,0.797-0.797l0,0l77.403-85.949   v164.15c0,5.891,4.781,10.656,10.672,10.656s10.656-4.766,10.656-10.656V234.665C405.316,234.009,405.051,233.431,404.582,232.915z   " data-original="#967ADA" class="active-path" data-old_color="#967ADA"/>
	<path style="fill:#BFBFF6" d="M95.998,223.993H10.672l0,0C4.781,223.993,0,228.774,0,234.664l0,0v138.652l0,0v53.342   c0,5.891,4.781,10.656,10.672,10.656s10.656-4.766,10.656-10.656v-53.342h74.67c41.232,0,74.669-33.422,74.669-74.654   S137.23,223.993,95.998,223.993z M95.998,351.989h-74.67V245.321h74.67c29.404,0,53.326,23.922,53.326,53.342   C149.324,328.067,125.402,351.989,95.998,351.989z" data-original="#967ADA" class="active-path" data-old_color="#967ADA"/>
</g><path style="fill:#FECD57;" d="M448.266,191.994c-29.56,0-53.606-24.046-53.606-53.623c0-22.343,13.922-41.968,33.937-49.889  c2.578,37.186,32.373,66.998,69.561,69.56C490.251,178.057,470.626,191.994,448.266,191.994z" data-original="#FECD57" class=""/><path style="fill:#F5BA45;" d="M503.375,147.558c-35.499,0-64.278-28.781-64.278-64.279c0-2.922,0.188-5.797,0.562-8.609  c-31.42,4.203-55.67,31.124-55.67,63.701c0,35.514,28.781,64.294,64.278,64.294c32.594,0,59.515-24.249,63.718-55.685  C509.172,147.355,506.297,147.558,503.375,147.558z M448.266,181.323c-23.67,0-42.95-19.266-42.95-42.952  c0-13.047,5.922-24.921,15.343-32.874c3.828,14.358,11.391,27.53,22.171,38.312c10.796,10.796,23.952,18.358,38.312,22.186  C473.204,175.401,461.313,181.323,448.266,181.323z" data-original="#F5BA45" class=""/></g> </svg>
